<svg id="visual" viewBox="0 0 960 540" width="960" height="540" xmlns="http://www.w3.org/2000/svg" xmlns:xlink="http://www.w3.org/1999/xlink" version="1.1"><path d="M0 159L11.5 158.5C23 158 46 157 68.8 158C91.7 159 114.3 162 137.2 159.3C160 156.7 183 148.3 205.8 143C228.7 137.7 251.3 135.3 274.2 137.3C297 139.3 320 145.7 342.8 152.3C365.7 159 388.3 166 411.2 170.5C434 175 457 177 480 174.5C503 172 526 165 548.8 160.5C571.7 156 594.3 154 617.2 151.5C640 149 663 146 685.8 145.3C708.7 144.7 731.3 146.3 754.2 146.5C777 146.7 800 145.3 822.8 148.2C845.7 151 868.3 158 891.2 160.7C914 163.3 937 161.7 948.5 160.8L960 160L960 0L948.5 0C937 0 914 0 891.2 0C868.3 0 845.7 0 822.8 0C800 0 777 0 754.2 0C731.3 0 708.7 0 685.8 0C663 0 640 0 617.2 0C594.3 0 571.7 0 548.8 0C526 0 503 0 480 0C457 0 434 0 411.2 0C388.3 0 365.7 0 342.8 0C320 0 297 0 274.2 0C251.3 0 228.7 0 205.8 0C183 0 160 0 137.2 0C114.3 0 91.7 0 68.8 0C46 0 23 0 11.5 0L0 0Z" fill="#171717"></path><path d="M0 123L11.5 124.3C23 125.7 46 128.3 68.8 130.2C91.7 132 114.3 133 137.2 134.7C160 136.3 183 138.7 205.8 137C228.7 135.3 251.3 129.7 274.2 130.3C297 131 320 138 342.8 141.8C365.7 145.7 388.3 146.3 411.2 143.8C434 141.3 457 135.7 480 134C503 132.3 526 134.7 548.8 137C571.7 139.3 594.3 141.7 617.2 141C640 140.3 663 136.7 685.8 131.3C708.7 126 731.3 119 754.2 116.8C777 114.7 800 117.3 822.8 123.5C845.7 129.7 868.3 139.3 891.2 145.3C914 151.3 937 153.7 948.5 154.8L960 156L960 0L948.5 0C937 0 914 0 891.2 0C868.3 0 845.7 0 822.8 0C800 0 777 0 754.2 0C731.3 0 708.7 0 685.8 0C663 0 640 0 617.2 0C594.3 0 571.7 0 548.8 0C526 0 503 0 480 0C457 0 434 0 411.2 0C388.3 0 365.7 0 342.8 0C320 0 297 0 274.2 0C251.3 0 228.7 0 205.8 0C183 0 160 0 137.2 0C114.3 0 91.7 0 68.8 0C46 0 23 0 11.5 0L0 0Z" fill="#141414"></path><path d="M0 121L11.5 117.2C23 113.3 46 105.7 68.8 100.8C91.7 96 114.3 94 137.2 91C160 88 183 84 205.8 82C228.7 80 251.3 80 274.2 83.3C297 86.7 320 93.3 342.8 95.7C365.7 98 388.3 96 411.2 98.5C434 101 457 108 480 113C503 118 526 121 548.8 116.7C571.7 112.3 594.3 100.7 617.2 94.8C640 89 663 89 685.8 90.7C708.7 92.3 731.3 95.7 754.2 96.8C777 98 800 97 822.8 95.3C845.7 93.7 868.3 91.3 891.2 94.8C914 98.3 937 107.7 948.5 112.3L960 117L960 0L948.5 0C937 0 914 0 891.2 0C868.3 0 845.7 0 822.8 0C800 0 777 0 754.2 0C731.3 0 708.7 0 685.8 0C663 0 640 0 617.2 0C594.3 0 571.7 0 548.8 0C526 0 503 0 480 0C457 0 434 0 411.2 0C388.3 0 365.7 0 342.8 0C320 0 297 0 274.2 0C251.3 0 228.7 0 205.8 0C183 0 160 0 137.2 0C114.3 0 91.7 0 68.8 0C46 0 23 0 11.5 0L0 0Z" fill="#101010"></path><path d="M0 66L11.5 64.2C23 62.3 46 58.7 68.8 57.8C91.7 57 114.3 59 137.2 61.2C160 63.3 183 65.7 205.8 67.2C228.7 68.7 251.3 69.3 274.2 71C297 72.7 320 75.3 342.8 77C365.7 78.7 388.3 79.3 411.2 78.3C434 77.3 457 74.7 480 73.3C503 72 526 72 548.8 69.5C571.7 67 594.3 62 617.2 61.2C640 60.3 663 63.7 685.8 69.2C708.7 74.7 731.3 82.3 754.2 85.5C777 88.7 800 87.3 822.8 87C845.7 86.7 868.3 87.3 891.2 88.2C914 89 937 90 948.5 90.5L960 91L960 0L948.5 0C937 0 914 0 891.2 0C868.3 0 845.7 0 822.8 0C800 0 777 0 754.2 0C731.3 0 708.7 0 685.8 0C663 0 640 0 617.2 0C594.3 0 571.7 0 548.8 0C526 0 503 0 480 0C457 0 434 0 411.2 0C388.3 0 365.7 0 342.8 0C320 0 297 0 274.2 0C251.3 0 228.7 0 205.8 0C183 0 160 0 137.2 0C114.3 0 91.7 0 68.8 0C46 0 23 0 11.5 0L0 0Z" fill="#0E0E0E"></path><path d="M0 38L11.5 40.2C23 42.3 46 46.7 68.8 49.7C91.7 52.7 114.3 54.3 137.2 53.7C160 53 183 50 205.8 48.2C228.7 46.3 251.3 45.7 274.2 45.5C297 45.3 320 45.7 342.8 45.3C365.7 45 388.3 44 411.2 43C434 42 457 41 480 42.5C503 44 526 48 548.8 49.2C571.7 50.3 594.3 48.7 617.2 48.8C640 49 663 51 685.8 51.2C708.7 51.3 731.3 49.7 754.2 48.2C777 46.7 800 45.3 822.8 44.2C845.7 43 868.3 42 891.2 40.3C914 38.7 937 36.3 948.5 35.2L960 34L960 0L948.5 0C937 0 914 0 891.2 0C868.3 0 845.7 0 822.8 0C800 0 777 0 754.2 0C731.3 0 708.7 0 685.8 0C663 0 640 0 617.2 0C594.3 0 571.7 0 548.8 0C526 0 503 0 480 0C457 0 434 0 411.2 0C388.3 0 365.7 0 342.8 0C320 0 297 0 274.2 0C251.3 0 228.7 0 205.8 0C183 0 160 0 137.2 0C114.3 0 91.7 0 68.8 0C46 0 23 0 11.5 0L0 0Z" fill="#0A0A0A"></path></svg>