<svg width="2024" height="461" viewBox="0 0 2024 461" fill="none" xmlns="http://www.w3.org/2000/svg">
<g filter="url(#filter0_i_92_51)">
<g filter="url(#filter1_d_92_51)">
<path d="M71.2805 46.0409L71.8953 46.0384C72.569 46.0361 73.243 46.0378 73.9169 46.0396C74.4024 46.0389 74.8879 46.0379 75.3734 46.0367C76.5518 46.0343 77.7302 46.0349 78.9085 46.0363C79.8666 46.0376 80.8247 46.0379 81.783 46.0372L82.1972 46.0369L83.0307 46.0363C85.6312 46.0349 88.2319 46.0367 90.8325 46.0396C93.061 46.0418 95.2895 46.0417 97.518 46.0391C100.524 46.0354 103.53 46.0349 106.537 46.0374C107.493 46.0378 108.449 46.0372 109.406 46.0358C110.572 46.0342 111.739 46.0348 112.905 46.0376C113.499 46.0392 114.094 46.0393 114.688 46.0378C115.334 46.0363 115.98 46.0382 116.625 46.0409L117.188 46.0372C118.729 46.0499 120.255 46.2978 121.571 47.1923L122.002 47.4834L122.403 47.7674L122.76 48.011C123.401 48.4656 123.896 48.9332 124.329 49.6077V49.9758H124.679C124.879 50.3696 125.076 50.7646 125.271 51.1606L125.439 51.4908C126.226 53.1018 126.327 54.7712 126.442 56.555C126.469 56.9604 126.497 57.3659 126.525 57.7715L126.56 58.3089C126.596 58.7982 126.596 58.7982 126.692 59.2258C126.793 59.7966 126.83 60.3504 126.86 60.9303L126.899 61.6569L126.919 62.0433C126.94 62.4471 126.961 62.8508 126.983 63.2545C127.045 64.4024 127.106 65.5502 127.166 66.698C127.21 67.5372 127.255 68.3763 127.301 69.2154L127.323 69.6309C127.402 71.0598 127.486 72.4842 127.658 73.9046C127.845 75.447 127.921 76.9949 128.001 78.5465L128.022 78.9552C128.088 80.2214 128.152 81.4876 128.213 82.7537C128.247 83.4531 128.282 84.1525 128.32 84.8521C128.333 85.1149 128.346 85.3778 128.358 85.6407C128.429 87.1947 128.592 88.6147 129.058 90.0954L129.489 90.1952C131.941 90.7664 134.344 91.4908 136.72 92.3466C137.367 92.5781 138.015 92.8041 138.663 93.0306C139.211 93.2221 139.759 93.4141 140.306 93.6066C140.909 93.8177 141.512 94.0274 142.117 94.2333C143.132 94.5804 144.125 94.9383 145.093 95.4129C145.678 95.6905 146.272 95.9411 146.868 96.1916L147.202 96.3333C147.86 96.6088 148.526 96.8607 149.2 97.0888V97.4568L149.622 97.5021C150.439 97.6825 151.138 98.0215 151.892 98.3886L152.361 98.6135C153.661 99.2422 154.943 99.906 156.217 100.589C156.56 100.771 156.903 100.952 157.247 101.13C158.608 101.838 159.957 102.567 161.296 103.319C162.103 103.771 162.917 104.209 163.737 104.634V105.002L164.207 105.152C164.787 105.37 164.787 105.37 165.214 105.669C165.828 106.016 166.2 106.022 166.889 105.922C167.446 105.608 167.916 105.214 168.359 104.742C168.723 104.365 169.117 104.038 169.516 103.703C170.391 102.956 171.227 102.175 172.057 101.373C172.506 100.943 172.964 100.522 173.428 100.11C174.288 99.3421 175.129 98.5535 175.964 97.7559C176.57 97.1799 177.189 96.6278 177.825 96.0882C178.496 95.5164 179.149 94.9218 179.784 94.3052C180.486 93.626 181.208 93.0028 181.967 92.3966C182.407 92.0324 182.786 91.6207 183.177 91.1996C184.053 90.3417 184.95 89.5176 185.881 88.7268C186.731 88.0041 187.54 87.2436 188.345 86.4665C188.792 86.0378 189.248 85.6186 189.711 85.2091C189.937 85.0055 190.161 84.799 190.382 84.5895L190.763 84.2293L191.112 83.8971C191.409 83.6542 191.409 83.6542 191.759 83.6542L191.935 83.1021C194.313 81.2349 197.024 80.9579 199.886 81.3416C202.207 81.8569 203.981 83.3853 205.596 85.1265L206.034 85.5866L206.472 86.0467L206.92 86.5068C207.329 86.947 207.683 87.4074 208.048 87.887C208.468 88.3508 208.886 88.7754 209.361 89.1753C209.836 89.5743 210.251 90.0065 210.675 90.4635L211.113 90.9236L211.551 91.3837L211.999 91.8438C212.426 92.3039 212.426 92.3039 212.777 92.7755C213.109 93.234 213.109 93.234 213.532 93.5577C214.066 94.0148 214.484 94.5239 214.932 95.0723C215.429 95.6759 215.949 96.222 216.542 96.7207C217.017 97.1197 217.431 97.552 217.856 98.009L218.294 98.469L218.732 98.9291L219.18 99.3892C219.589 99.8294 219.943 100.29 220.308 100.769C220.728 101.233 221.146 101.658 221.621 102.058C222.096 102.457 222.511 102.889 222.935 103.346L223.373 103.806L223.811 104.266L224.259 104.726C224.686 105.186 224.686 105.186 225.037 105.658C225.369 106.116 225.369 106.116 225.792 106.44C226.327 106.897 226.744 107.406 227.192 107.955C227.689 108.558 228.209 109.104 228.802 109.603C229.277 110.002 229.692 110.434 230.116 110.891L230.554 111.351L230.992 111.812L231.44 112.272C231.849 112.712 232.203 113.172 232.568 113.652C232.988 114.116 233.406 114.54 233.881 114.94C234.356 115.339 234.771 115.771 235.195 116.228L235.633 116.689L236.071 117.149L236.52 117.609C237.647 118.824 237.647 118.824 237.647 119.357L238.173 119.541C238.441 119.997 238.441 119.997 238.709 120.576L238.978 121.147C240.067 123.819 239.892 126.757 239.048 129.479H238.698L238.567 129.971C238.333 130.623 238.064 131.02 237.636 131.549L237.213 132.076C236.657 132.746 236.092 133.408 235.519 134.063C235.171 134.46 235.171 134.459 234.845 135H234.494L234.374 135.403C234.153 135.901 233.924 136.183 233.548 136.556C232.407 137.718 231.4 139.033 230.371 140.303C229.84 140.956 229.299 141.601 228.748 142.235C228.151 142.925 227.6 143.638 227.069 144.385C226.766 144.783 226.434 145.132 226.088 145.49C225.899 145.71 225.713 145.933 225.529 146.157C225.054 146.731 224.573 147.298 224.084 147.859C223.432 148.618 222.821 149.402 222.218 150.205C221.81 150.74 221.384 151.255 220.95 151.767C220.565 152.226 220.196 152.699 219.828 153.173C219.607 153.404 219.607 153.404 219.257 153.404L219.104 153.737C218.907 154.14 218.907 154.14 218.556 154.692H218.206L218.081 154.998C217.701 155.724 217.148 156.308 216.629 156.927C216.235 157.519 216.112 157.836 216.104 158.557C216.485 159.781 217.171 160.883 217.779 161.996C217.984 162.372 218.188 162.748 218.393 163.125L218.666 163.626C219.257 164.736 219.257 164.736 219.257 165.366H219.607L219.773 165.731L220.527 167.39L220.787 167.965C221.154 168.771 221.521 169.576 221.905 170.373C222.266 171.127 222.591 171.896 222.913 172.67C223.333 173.672 223.76 174.67 224.205 175.66C225.387 178.338 225.387 178.338 225.387 179.352H225.737L225.904 179.892C226.414 181.524 226.414 181.524 227.007 183.125C227.289 183.839 227.425 184.473 227.489 185.242H227.839L227.981 185.764C228.491 187.619 229.044 189.456 229.611 191.293C229.94 192.367 230.247 193.441 230.51 194.535C230.856 196.252 230.856 196.252 231.806 197.608C232.378 197.814 232.944 197.835 233.542 197.86C234.783 197.918 234.783 197.918 235.37 198.124C235.827 198.166 236.282 198.2 236.74 198.227L237.162 198.253C237.464 198.272 237.767 198.29 238.07 198.308C238.548 198.337 239.026 198.367 239.505 198.397C240.52 198.46 241.536 198.522 242.551 198.584C243.728 198.656 244.904 198.728 246.081 198.802C246.553 198.831 247.024 198.86 247.496 198.888L248.362 198.942L248.761 198.965C249.296 198.999 249.746 199.049 250.257 199.228C250.716 199.269 251.172 199.302 251.632 199.328L252.056 199.353C252.36 199.371 252.664 199.389 252.968 199.407C253.449 199.435 253.931 199.464 254.412 199.493C255.781 199.576 257.151 199.658 258.52 199.738C259.357 199.787 260.195 199.837 261.033 199.889C261.351 199.908 261.67 199.927 261.989 199.945C262.435 199.97 262.882 199.998 263.329 200.025L263.725 200.046C264.533 200.099 265.25 200.259 266.02 200.517L266.455 200.628C268.841 201.272 270.711 202.939 271.975 205.117C272.982 207.072 273.254 208.914 273.247 211.117C273.248 211.324 273.248 211.532 273.249 211.745C273.251 212.437 273.25 213.128 273.249 213.819L273.252 215.31C273.254 216.518 273.255 217.726 273.254 218.933C273.254 220.342 273.254 221.75 273.256 223.158C273.257 225.824 273.258 228.49 273.256 231.157C273.255 233.592 273.257 236.028 273.261 238.463C273.264 240.968 273.266 243.473 273.265 245.978C273.264 247.382 273.265 248.787 273.267 250.192C273.27 251.388 273.27 252.583 273.268 253.779C273.267 254.389 273.267 254.998 273.269 255.607C273.27 256.27 273.269 256.932 273.267 257.594L273.271 258.17C273.258 259.908 272.932 261.565 272.205 263.134L271.973 263.644L271.8 264.009H271.45L271.322 264.422C271.069 264.998 270.803 265.269 270.344 265.677L269.913 266.06L269.523 266.401L269.107 266.804C266.946 268.372 264.533 268.478 261.992 268.61C260.502 268.689 259.021 268.786 257.537 268.965C255.977 269.151 254.413 269.255 252.846 269.352L252.463 269.376C251.549 269.432 250.635 269.487 249.721 269.541C248.796 269.596 247.871 269.652 246.946 269.709C246.579 269.731 246.211 269.753 245.844 269.774L245.175 269.815L244.586 269.85C244.131 269.868 244.131 269.868 243.777 270.082C243.4 270.12 243.022 270.147 242.644 270.17L242.292 270.192C241.907 270.216 241.522 270.238 241.138 270.261L240.338 270.309C239.636 270.352 238.934 270.394 238.232 270.436C237.516 270.478 236.8 270.522 236.084 270.565C234.678 270.65 233.273 270.735 231.867 270.818V271.186L231.547 271.471C231.004 272.116 230.884 272.79 230.685 273.613C230.596 273.961 230.506 274.31 230.415 274.658L230.27 275.215C230.005 276.199 229.704 277.172 229.404 278.145L229.046 279.309L228.875 279.865C228.73 280.338 228.588 280.813 228.449 281.289L228.331 281.693C228.231 282.037 228.132 282.38 228.033 282.724C227.826 283.374 227.572 283.992 227.314 284.621C227.227 284.906 227.147 285.194 227.073 285.483C226.828 286.371 226.503 287.204 226.156 288.052C225.831 288.876 225.539 289.711 225.252 290.55C224.993 291.296 224.687 291.994 224.342 292.701C224.019 293.389 223.749 294.102 223.471 294.812C222.984 296.042 222.473 297.243 221.884 298.423C221.09 300.063 220.341 301.722 219.607 303.392H219.257L219.167 303.716C218.893 304.641 218.57 305.356 218.031 306.153L217.786 306.669C217.508 307.252 217.196 307.795 216.871 308.35C216.237 309.482 216.237 309.482 216.104 310.754C216.481 311.522 216.993 312.161 217.527 312.813L217.785 313.13C218.31 313.772 218.845 314.407 219.388 315.032C219.989 315.726 220.543 316.442 221.078 317.193C221.381 317.593 221.712 317.941 222.059 318.299C222.281 318.55 222.5 318.803 222.716 319.058L223.042 319.439C223.285 319.771 223.285 319.771 223.285 320.139L223.811 320.323C224.058 320.613 224.295 320.913 224.522 321.221C225.082 321.958 225.653 322.667 226.263 323.36C227.12 324.34 227.921 325.36 228.715 326.397C229.101 326.896 229.485 327.39 229.919 327.846C230.574 328.534 231.165 329.281 231.77 330.017L232.934 331.432C233.491 332.107 234.053 332.775 234.626 333.436C235.565 334.525 236.445 335.665 237.31 336.82C237.62 337.241 237.62 337.241 237.915 337.516C239.353 339.14 239.753 341.496 239.747 343.623C239.683 344.994 239.451 346.257 239.048 347.561H238.698L238.599 348.009C237.925 349.764 236.462 351.05 235.195 352.345C234.903 352.652 234.611 352.958 234.319 353.266C233.88 353.728 233.44 354.19 232.995 354.646C232.569 355.087 232.569 355.087 232.25 355.543C231.822 356.083 231.351 356.51 230.843 356.966C230.221 357.542 229.645 358.165 229.065 358.787C227.314 360.627 227.314 360.627 226.865 361.087C226.439 361.528 226.439 361.528 226.12 361.984C225.692 362.524 225.22 362.951 224.713 363.407C224.091 363.983 223.515 364.606 222.935 365.228C221.184 367.068 221.184 367.068 220.735 367.528C220.309 367.969 220.309 367.969 219.99 368.426C219.562 368.966 219.09 369.393 218.583 369.848C217.961 370.424 217.385 371.048 216.805 371.669C215.054 373.51 215.054 373.51 214.605 373.97C214.179 374.41 214.179 374.41 213.86 374.867C213.432 375.407 212.96 375.834 212.453 376.289C211.831 376.865 211.255 377.489 210.675 378.11C208.924 379.951 208.924 379.951 208.475 380.411C208.049 380.851 208.049 380.851 207.73 381.308C207.303 381.847 206.831 382.274 206.324 382.729C205.611 383.389 204.946 384.106 204.293 384.831C202.122 386.993 199.74 387.615 196.837 387.542C195.982 387.486 195.333 387.318 194.562 386.944L194.107 386.761C192.158 385.929 190.704 384.4 189.205 382.893C188.733 382.424 188.307 382.093 187.731 381.791C187.434 381.49 187.142 381.184 186.855 380.871C186.533 380.554 186.208 380.24 185.881 379.928L185.388 379.455C184.948 379.035 184.948 379.035 184.519 378.721C184.423 378.641 184.327 378.561 184.228 378.478V378.11L183.919 377.964C183.509 377.732 183.213 377.474 182.871 377.144C182.394 376.694 181.911 376.276 181.393 375.879C180.825 375.44 180.343 374.961 179.85 374.43C179.296 373.902 178.726 373.392 178.159 372.879L177.168 371.98L176.823 371.667C176.133 371.038 175.452 370.399 174.781 369.748C174.146 369.135 173.478 368.561 172.779 368.029C172.414 367.742 172.11 367.412 171.793 367.068C171.461 366.757 171.125 366.452 170.79 366.146C170.363 365.754 169.945 365.353 169.527 364.952C169.232 364.675 168.937 364.399 168.641 364.124L168.228 363.732C167.385 362.974 167.385 362.974 166.331 362.72C165.627 362.842 165.225 363.009 164.612 363.388C164.321 363.553 164.029 363.718 163.737 363.882C162.989 364.311 162.251 364.756 161.514 365.205C160.298 365.942 159.049 366.602 157.789 367.251C157.194 367.559 156.601 367.872 156.008 368.184L155.311 368.55C154.863 368.785 154.415 369.022 153.969 369.262C152.807 369.883 151.644 370.445 150.426 370.933C149.966 371.133 149.506 371.333 149.047 371.534C148.674 371.669 148.674 371.669 148.149 371.669V372.037C147.81 372.161 147.47 372.284 147.131 372.405L146.558 372.612C146.047 372.773 146.047 372.773 145.522 372.773V373.141L144.996 373.323L144.296 373.567L143.951 373.686C143.369 373.887 142.79 374.102 142.216 374.33C141.399 374.655 140.571 374.946 139.742 375.235L139.253 375.405C137.324 376.075 135.385 376.712 133.437 377.317L133.075 377.43C130.867 378.11 130.867 378.11 129.934 378.11V378.478L129.529 378.547C128.876 378.962 128.843 379.366 128.645 380.118C128.428 381.214 128.392 382.325 128.341 383.441C128.326 383.707 128.312 383.972 128.298 384.237C128.261 384.933 128.226 385.629 128.192 386.325C128.131 387.565 128.066 388.804 128.001 390.043L127.98 390.448C127.897 392.025 127.79 393.593 127.614 395.162C127.461 396.581 127.385 398.005 127.307 399.43L127.285 399.827C127.233 400.777 127.182 401.728 127.132 402.679C127.074 403.762 127.016 404.845 126.956 405.928L126.935 406.321C126.835 408.109 126.704 409.888 126.503 411.667C126.433 412.321 126.389 412.972 126.354 413.629C126.178 416.067 125.309 418.167 123.629 419.886C123.178 420.281 122.711 420.642 122.227 420.991L121.746 421.344C119.299 422.988 116.563 422.779 113.765 422.769C113.282 422.77 112.8 422.772 112.318 422.775C111.15 422.779 109.981 422.779 108.813 422.777C107.862 422.776 106.911 422.776 105.961 422.777L105.549 422.778L104.721 422.779C102.138 422.783 99.5551 422.78 96.9723 422.776C94.7619 422.773 92.5516 422.775 90.3412 422.781C87.4923 422.789 84.6434 422.791 81.7946 422.787L81.3845 422.787C80.4364 422.787 79.4884 422.788 78.5404 422.792C77.3829 422.796 76.2254 422.795 75.0678 422.79C74.4785 422.787 73.8893 422.788 73.3001 422.791C70.7293 422.805 68.5343 422.699 66.1816 421.543V421.175L65.8313 421.071C64.0346 420.166 62.6974 418.299 61.9781 416.39C61.5856 415.065 61.522 413.743 61.4416 412.364C61.4148 411.916 61.3872 411.468 61.359 411.02L61.3239 410.423C61.3047 409.951 61.3047 409.951 61.1024 409.58C61.0618 409.097 61.0293 408.613 61.0048 408.128L60.9798 407.674C60.9619 407.348 60.9444 407.022 60.9271 406.695C60.8996 406.18 60.8716 405.664 60.843 405.148C60.7826 404.053 60.7236 402.958 60.6645 401.863C60.5963 400.594 60.5273 399.326 60.4573 398.058C60.4295 397.549 60.4023 397.04 60.3755 396.532L60.3242 395.597L60.3022 395.167C60.2699 394.596 60.2246 394.114 60.0515 393.569C60.0176 393.174 59.9905 392.778 59.9701 392.381L59.9501 392.018C59.9288 391.622 59.9078 391.226 59.8872 390.83C59.8724 390.554 59.8574 390.277 59.8422 390.001C59.8026 389.273 59.7635 388.544 59.7249 387.816C59.6632 386.654 59.6008 385.491 59.5375 384.329C59.5156 383.925 59.4942 383.52 59.4732 383.116C59.4953 380.879 59.4953 380.879 58.8255 378.847C57.8421 378.22 56.6282 377.973 55.5253 377.675C52.3259 376.806 49.1847 375.629 46.074 374.463C45.26 374.161 44.4422 373.87 43.6208 373.59C42.6232 373.245 41.6585 372.85 40.6961 372.408C40.3287 372.249 39.9484 372.125 39.5597 372.037V371.669L39.1876 371.574L38.684 371.439L38.1913 371.31C37.6239 371.114 37.1277 370.863 36.5986 370.575C36.1201 370.321 35.6309 370.1 35.1389 369.877C33.412 369.093 31.7455 368.213 30.102 367.252L29.5801 366.951L29.2263 366.7V366.332L29.7867 366.007C31.2698 365.145 32.7473 364.274 34.2179 363.388C35.4232 362.662 36.6296 361.939 37.8411 361.225L38.2447 360.985C39.1688 360.443 39.1688 360.443 39.5597 360.443V360.075L39.8486 359.918C40.2852 359.679 40.7217 359.44 41.1579 359.201L41.6122 358.953C42.4207 358.509 43.1843 358.041 43.9383 357.498C44.217 357.333 44.498 357.172 44.7811 357.015C45.6519 356.524 46.5035 356.004 47.3536 355.474C48.3134 354.877 49.2767 354.294 50.26 353.741C50.6746 353.503 51.0869 353.261 51.4968 353.015L51.883 352.784C52.1364 352.632 52.3895 352.479 52.6423 352.326C53.5323 351.793 53.5323 351.793 53.9215 351.793V351.425L54.2245 351.276C55.3214 350.719 56.3488 350.081 57.3766 349.395C57.9004 349.064 58.4271 348.778 58.9751 348.496C59.8069 348.055 60.6113 347.559 61.4205 347.075L61.8289 346.833L62.1967 346.614C62.5035 346.456 62.5035 346.456 62.8538 346.456V346.088L63.1446 345.945C64.2175 345.401 65.2323 344.783 66.249 344.133C67.203 343.526 68.1754 342.961 69.159 342.408C70.255 341.784 70.255 341.784 71.2935 341.062C71.8809 340.691 72.1622 340.664 72.837 340.751L73.344 340.917C74.3079 341.213 75.3043 341.335 76.2961 341.487C76.6893 341.549 77.0825 341.61 77.4755 341.671L78.065 341.763C78.5444 341.844 79.0175 341.938 79.4932 342.039C81.064 342.345 82.6645 342.455 84.2541 342.603L84.7748 342.652C87.3329 342.893 89.8841 343.099 92.4531 343.144L92.8172 343.152C96.2605 343.226 99.7189 343.036 103.142 342.649C103.745 342.584 104.349 342.522 104.953 342.464C107.292 342.234 109.589 341.963 111.894 341.487C112.162 341.438 112.429 341.39 112.697 341.343L113.105 341.27C113.361 341.225 113.617 341.18 113.872 341.136C114.584 341.007 115.239 340.811 115.922 340.567C116.362 340.461 116.804 340.361 117.247 340.268C117.471 340.22 117.695 340.172 117.926 340.123C118.444 340.034 118.903 339.992 119.425 340.015V339.647L119.754 339.571C120.254 339.455 120.753 339.339 121.253 339.222L121.77 339.103C122.815 338.856 123.844 338.546 124.855 338.175C125.283 338.039 125.712 337.908 126.142 337.778C126.637 337.612 127.122 337.422 127.608 337.228C128.042 337.057 128.477 336.891 128.913 336.727C131.272 335.837 131.272 335.837 133.586 334.828C133.962 334.678 133.962 334.678 134.488 334.678V334.31L134.887 334.161C136.118 333.683 137.282 333.139 138.449 332.512C139.526 331.934 140.618 331.391 141.715 330.856C142.545 330.448 143.356 330 144.148 329.515C144.471 329.341 144.471 329.341 144.821 329.341V328.973L145.147 328.809C146.206 328.266 147.203 327.665 148.193 326.995L148.63 326.701C148.92 326.505 149.21 326.31 149.499 326.114C149.848 325.88 150.198 325.647 150.549 325.417C151.902 324.522 153.195 323.563 154.478 322.562L154.867 322.261L155.215 321.989C155.505 321.796 155.505 321.796 155.855 321.796L156.03 321.244C156.268 321.067 156.51 320.896 156.756 320.731C157.972 319.894 159.074 318.862 160.184 317.88C160.584 317.563 160.584 317.563 160.934 317.563L161.066 317.218C161.33 316.745 161.523 316.695 161.985 316.459C162.279 316.154 162.571 315.848 162.861 315.538C163.117 315.29 163.374 315.041 163.632 314.794C164.994 313.482 166.312 312.122 167.622 310.752C167.832 310.533 168.042 310.314 168.253 310.095C169.306 309 170.332 307.92 171.211 306.661C171.539 306.202 171.928 305.817 172.319 305.417C172.679 304.996 173.025 304.563 173.369 304.128L173.725 303.68C175.099 301.934 176.415 300.138 177.671 298.297L177.899 297.962C178.291 297.384 178.291 297.384 178.624 296.767H178.974L179.11 296.369C179.34 295.808 179.619 295.349 179.948 294.846L180.328 294.256L180.527 293.949C184.014 288.508 187.207 282.584 189.395 276.431C189.641 275.75 189.892 275.079 190.183 274.418C190.612 273.425 190.946 272.398 191.287 271.369C191.417 270.979 191.548 270.589 191.68 270.199L191.957 269.38L192.085 269.001C192.211 268.625 192.336 268.249 192.46 267.873L192.593 267.475C192.927 266.455 193.185 265.426 193.423 264.377C193.63 263.465 193.843 262.568 194.134 261.682C194.375 260.946 194.527 260.23 194.66 259.465C194.772 258.823 194.881 258.213 195.084 257.596C195.258 257.029 195.36 256.496 195.444 255.907L195.534 255.292L195.623 254.657C195.683 254.238 195.744 253.819 195.805 253.4L195.884 252.84C195.963 252.414 195.963 252.414 196.138 252.23C196.202 251.78 196.255 251.333 196.302 250.881L196.347 250.464C196.379 250.172 196.41 249.879 196.441 249.586C196.488 249.145 196.535 248.704 196.583 248.264C196.736 246.838 196.878 245.414 196.971 243.982C197.014 243.581 197.014 243.581 197.189 243.213C197.473 240.475 197.391 237.693 197.386 234.944C197.386 234.575 197.386 234.206 197.387 233.838C197.396 230.449 197.396 230.449 197.286 227.063C197.279 226.929 197.272 226.795 197.265 226.658C197.229 225.987 197.229 225.987 197.014 225.361C196.966 224.955 196.928 224.548 196.894 224.141C196.883 224.018 196.873 223.896 196.862 223.77C196.84 223.508 196.818 223.246 196.796 222.984C196.739 222.31 196.68 221.635 196.621 220.961L196.586 220.563C196.502 219.612 196.412 218.661 196.302 217.712L196.231 217.09C196.148 216.52 196.148 216.52 195.974 215.948C195.67 214.793 195.525 213.61 195.35 212.427C195.207 211.487 195.042 210.617 194.737 209.718C194.63 209.225 194.528 208.73 194.43 208.235C193.807 205.222 192.925 202.301 192 199.378L191.875 198.981C191.41 197.512 190.922 196.059 190.358 194.627L190.109 193.96C189.041 191.108 187.831 188.34 186.505 185.61C186.242 185.066 185.979 184.521 185.717 183.976L185.531 183.594C185.104 182.707 185.104 182.707 185.104 182.297H184.754C184.636 182.029 184.52 181.761 184.403 181.492L184.206 181.039C184.053 180.641 184.053 180.641 184.053 180.273H183.703L183.554 179.935C183.081 178.894 182.54 177.973 181.897 177.04C181.623 176.625 181.39 176.209 181.163 175.764C180.761 174.974 180.287 174.255 179.788 173.53C178.974 172.305 178.974 172.305 178.974 171.807H178.624C177.923 170.811 177.923 170.811 177.923 170.335H177.573C177.333 170.011 177.333 170.011 177.069 169.576L176.787 169.118L176.522 168.678C176.058 167.912 176.058 167.912 175.494 167.231C175.105 166.822 174.765 166.393 174.42 165.941C173.686 164.99 172.934 164.058 172.172 163.132C171.793 162.671 171.421 162.209 171.06 161.732C170.732 161.287 170.732 161.287 170.261 160.823C169.867 160.397 169.867 160.397 169.867 160.029L169.571 159.902C168.734 159.403 168.182 158.599 167.59 157.82C167.301 157.51 167.009 157.203 166.714 156.9L166.276 156.429C165.851 155.978 165.851 155.978 165.4 155.612C164.926 155.213 164.516 154.776 164.087 154.324C162.789 153.034 161.451 151.819 160.058 150.643C159.715 150.348 159.372 150.053 159.03 149.757C156.953 147.969 154.85 146.192 152.575 144.688L152.233 144.461C152.009 144.313 151.784 144.166 151.559 144.021C151.292 143.846 151.033 143.657 150.776 143.466V143.098L150.428 142.968C149.735 142.655 149.103 142.26 148.455 141.855L148.05 141.604C147.393 141.194 146.749 140.776 146.124 140.314C145.353 139.759 144.523 139.34 143.684 138.911C142.603 138.354 141.554 137.745 140.509 137.117C139.633 136.595 138.739 136.156 137.815 135.736C137.446 135.557 137.078 135.377 136.71 135.196C135.016 134.374 133.309 133.657 131.549 133.009C131.105 132.839 130.668 132.647 130.24 132.435C129.332 131.994 128.382 131.684 127.432 131.359C126.707 131.111 125.992 130.851 125.282 130.56C124.349 130.195 123.394 129.972 122.425 129.742C121.652 129.558 120.911 129.338 120.164 129.058C119.485 128.828 118.789 128.676 118.093 128.514C117.703 128.423 117.314 128.328 116.927 128.23C115.803 127.947 114.688 127.729 113.545 127.558C112.983 127.461 112.442 127.331 111.891 127.186C110.662 126.882 109.438 126.731 108.183 126.603C107.764 126.559 107.346 126.515 106.928 126.47C106.746 126.451 106.564 126.432 106.377 126.413C105.939 126.35 105.939 126.35 105.589 126.166C105.295 126.128 105.001 126.098 104.706 126.074L104.153 126.028L103.553 125.982L102.929 125.934C92.4287 124.65 92.4287 124.65 82.2948 126.35C82.0194 126.389 81.7431 126.418 81.4663 126.444C79.5538 126.636 77.678 126.863 75.794 127.258L75.3356 127.352C74.5817 127.507 73.8294 127.67 73.0787 127.841C70.5706 128.384 70.5706 128.384 69.3305 127.54L68.9838 127.271C68.7223 127.104 68.4595 126.939 68.1957 126.776L67.7649 126.499C66.9329 125.98 66.0838 125.493 65.2351 125.005C64.4687 124.564 63.7172 124.095 62.9818 123.599C62.6053 123.359 62.2188 123.188 61.803 123.038V122.67L61.376 122.543C59.9347 121.985 58.6332 121.051 57.3158 120.23C56.5597 119.76 55.797 119.303 55.0279 118.858C54.3124 118.44 53.6027 118.013 52.8925 117.586L52.4126 117.298C51.6153 116.819 50.82 116.337 50.0267 115.851C47.9806 114.592 47.9806 114.592 45.8649 113.468V113.1L45.4489 112.985C44.7492 112.706 44.1669 112.338 43.532 111.927C43.0863 111.643 42.6353 111.38 42.1759 111.121C40.9358 110.418 39.7273 109.658 38.5146 108.904C38.0061 108.588 37.4971 108.273 36.9874 107.958L36.5145 107.666C36.2038 107.482 35.8884 107.307 35.5684 107.142C34.7149 106.688 33.9022 106.163 33.0819 105.646L32.6943 105.403L32.3449 105.183C32.0044 104.976 32.0044 104.976 31.5031 104.818V104.45L31.0761 104.335C30.2579 104.003 29.5895 103.508 28.876 102.978C29.1156 101.999 29.665 101.63 30.4523 101.138C30.9075 100.879 31.3712 100.649 31.8424 100.424L32.2307 100.236C33.2423 99.7473 34.2618 99.2773 35.2843 98.8145C35.8819 98.543 36.4663 98.2591 37.042 97.9399C37.6071 97.6541 38.0631 97.5222 38.684 97.4568V97.0888L39.1586 96.9134C40.2494 96.5078 41.3332 96.0926 42.4051 95.6343C43.0262 95.3743 43.6516 95.1268 44.2776 94.8804L44.6132 94.748C44.9718 94.6074 45.3307 94.4675 45.6898 94.3282L46.132 94.1553C47.3286 93.6919 48.5351 93.2719 49.7508 92.8676L50.334 92.6727C50.7158 92.5453 51.0977 92.4182 51.4796 92.2912C51.9109 92.1476 52.3419 92.0035 52.7727 91.8589C53.7653 91.5283 54.752 91.2088 55.7605 90.9372L56.266 90.7972C56.5927 90.7071 56.9202 90.6208 57.2487 90.5382L57.7008 90.4125L58.1025 90.3076C58.6877 89.9745 58.8763 89.6149 59.1758 88.9912C59.304 88.3397 59.342 87.6912 59.3776 87.0279L59.4163 86.4436C59.4566 85.8207 59.4916 85.1977 59.5261 84.5744L59.5988 83.3259C59.6825 81.8485 59.758 80.3703 59.8331 78.8923C59.8656 78.2604 59.8985 77.6286 59.9317 76.9967L59.9606 76.413L59.989 75.8756L60.0128 75.4045C60.0515 75.0046 60.0515 75.0046 60.2267 74.4525C60.267 73.9666 60.2988 73.4833 60.3242 72.9964L60.3493 72.5473C60.3671 72.2256 60.3847 71.9039 60.402 71.5821C60.4294 71.0731 60.4574 70.5643 60.4861 70.0555C60.5462 68.9753 60.6057 67.8952 60.6645 66.815C60.7327 65.5636 60.8018 64.3121 60.8717 63.0605C60.8997 62.5586 60.9265 62.0568 60.9535 61.5549L61.0048 60.6336L61.0269 60.2094C61.0593 59.6431 61.1057 59.1665 61.2775 58.6254C61.3094 58.2829 61.3336 57.9395 61.3529 57.5959L61.3917 56.9748C61.4174 56.5475 61.442 56.12 61.4656 55.6925C61.6149 53.3751 62.0876 51.6845 63.3793 49.7917L63.7733 49.2052C64.6781 48.2328 65.7349 47.2048 67.0573 47.0312V46.6632C68.4885 46.2235 69.7923 46.031 71.2805 46.0409Z" fill="white"/>
<path d="M10.5734 151.322L11.17 151.301C12.9274 151.402 14.4833 152.346 15.9482 153.288C16.3171 153.52 16.6863 153.752 17.0558 153.983L17.6245 154.34C18.5344 154.904 19.4578 155.442 20.3815 155.98C21.998 156.925 23.5992 157.894 25.1944 158.879C26.4423 159.646 27.6998 160.394 28.9635 161.133C30.5801 162.078 32.1812 163.047 33.7764 164.032C35.0243 164.799 36.282 165.547 37.5455 166.286C39.1481 167.225 40.7408 168.183 42.3231 169.159C43.6594 169.982 45.0014 170.794 46.3465 171.6L46.6565 171.786C47.177 172.098 47.6976 172.41 48.2181 172.721C49.1418 173.275 50.0653 173.829 50.9885 174.384L52.5203 175.304L53.1333 175.672L53.4398 175.856L130.371 222.048C131.5 222.726 132.629 223.404 133.759 224.081C134.27 224.388 134.782 224.695 135.293 225.003C136.216 225.559 137.139 226.113 138.069 226.658C138.382 226.842 138.696 227.028 139.009 227.213C139.397 227.443 139.786 227.671 140.176 227.897C142.107 229.047 143.404 230.372 144.082 232.626C144.495 234.426 144.292 236.259 143.42 237.876C142.395 239.403 141.099 240.295 139.567 241.188L138.595 241.762C138.039 242.09 137.482 242.417 136.925 242.742C135.637 243.497 134.357 244.267 133.086 245.053C131.484 246.042 129.868 247.002 128.244 247.952C126.989 248.688 125.744 249.441 124.504 250.206C122.902 251.195 121.286 252.155 119.662 253.105C118.407 253.841 117.162 254.594 115.922 255.359C114.32 256.348 112.704 257.308 111.08 258.258C109.825 258.994 108.58 259.747 107.34 260.512C105.738 261.501 104.122 262.461 102.498 263.411C101.243 264.147 99.998 264.9 98.7582 265.665C97.1556 266.654 95.5401 267.614 93.9164 268.563C92.6607 269.3 91.416 270.053 90.1762 270.818C88.5736 271.807 86.9581 272.767 85.3343 273.716C84.0787 274.453 82.834 275.206 81.5941 275.971C79.9916 276.96 78.376 277.92 76.7523 278.869C75.4967 279.606 74.2519 280.359 73.0121 281.124C71.4095 282.113 69.794 283.073 68.1702 284.022C66.9146 284.759 65.6699 285.512 64.4301 286.277C62.8275 287.266 61.212 288.226 59.5882 289.175C58.3326 289.912 57.0879 290.665 55.848 291.43C54.4272 292.306 52.9967 293.165 51.557 294.006C49.9544 294.946 48.3618 295.903 46.7795 296.88C45.4431 297.702 44.1012 298.514 42.756 299.32L42.446 299.506C41.9255 299.818 41.405 300.13 40.8845 300.442C39.9608 300.995 39.0373 301.549 38.114 302.104L36.5822 303.024L35.9692 303.392C16.88 314.854 16.88 314.854 16.3192 315.19C15.9079 315.437 15.4977 315.687 15.0886 315.939L14.7585 316.141C14.4541 316.327 14.1501 316.514 13.8463 316.701C12.3007 317.558 10.5659 317.634 8.87331 317.252C7.18545 316.657 5.68691 315.499 4.8422 313.826C4.38805 312.783 4.15896 311.929 4.15809 310.775L4.15634 310.099L4.15722 309.353L4.15599 308.559C4.155 307.828 4.15466 307.097 4.15494 306.366C4.15471 305.572 4.15406 304.779 4.15301 303.985C4.15137 302.409 4.15044 300.833 4.15021 299.256C4.14962 297.369 4.14846 295.482 4.14671 293.595C4.14321 289.033 4.14087 284.471 4.1397 279.91L4.13707 273.438C4.13358 265.592 4.13113 257.746 4.12971 249.9V249.203L4.12902 245.708V245.008C4.12727 237.511 4.12347 230.015 4.11763 222.518C4.11068 213.509 4.10723 204.501 4.1073 195.492C4.10695 192.044 4.10415 188.596 4.10065 185.148C4.09715 181.684 4.09615 178.219 4.09767 174.754C4.09883 172.695 4.09755 170.636 4.09382 168.577C4.09148 167.202 4.09148 165.827 4.09382 164.452C4.09504 163.668 4.09522 162.884 4.09206 162.1C4.08961 161.387 4.08996 160.674 4.09311 159.96C4.0937 159.704 4.09306 159.448 4.09119 159.192C4.07367 156.74 4.58159 154.874 6.21673 153.094C7.45009 151.891 8.91114 151.359 10.5734 151.322Z" fill="#FF0000"/>
</g>
<g filter="url(#filter2_i_92_51)">
<path d="M369.577 363V120.875H404.027L537.277 300.275L519.402 303.85V120.875H563.602V363H528.827L397.527 182.3L413.777 178.725V363H369.577ZM677.746 366.9C659.546 366.9 643.621 362.783 629.971 354.55C616.321 346.317 605.704 335.158 598.121 321.075C590.537 306.992 586.746 291.392 586.746 274.275C586.746 256.508 590.537 240.8 598.121 227.15C605.921 213.283 616.429 202.342 629.646 194.325C643.079 186.308 658.029 182.3 674.496 182.3C688.362 182.3 700.496 184.575 710.896 189.125C721.512 193.675 730.504 199.958 737.871 207.975C745.237 215.992 750.871 225.2 754.771 235.6C758.671 245.783 760.621 256.833 760.621 268.75C760.621 271.783 760.404 274.925 759.971 278.175C759.754 281.425 759.212 284.242 758.346 286.625H621.846V254.125H734.296L714.146 269.4C716.096 259.433 715.554 250.55 712.521 242.75C709.704 234.95 704.937 228.775 698.221 224.225C691.721 219.675 683.812 217.4 674.496 217.4C665.612 217.4 657.704 219.675 650.771 224.225C643.837 228.558 638.529 235.058 634.846 243.725C631.379 252.175 630.079 262.467 630.946 274.6C630.079 285.433 631.487 295.075 635.171 303.525C639.071 311.758 644.704 318.15 652.071 322.7C659.654 327.25 668.321 329.525 678.071 329.525C687.821 329.525 696.054 327.467 702.771 323.35C709.704 319.233 715.121 313.708 719.021 306.775L753.471 323.675C750.004 332.125 744.587 339.6 737.221 346.1C729.854 352.6 721.079 357.692 710.896 361.375C700.929 365.058 689.879 366.9 677.746 366.9ZM824.42 363L763.645 186.2H808.495L853.02 320.425L837.42 320.1L884.87 186.2H922.57L969.695 320.1L954.095 320.425L998.62 186.2H1043.47L982.695 363H944.67L896.57 222.925H910.87L862.12 363H824.42ZM1143.83 366.9C1128.45 366.9 1114.15 364.083 1100.93 358.45C1087.93 352.817 1076.67 345.017 1067.13 335.05C1057.82 324.867 1050.99 313.058 1046.66 299.625L1083.38 283.7C1089.23 297.567 1097.68 308.508 1108.73 316.525C1119.78 324.325 1132.24 328.225 1146.11 328.225C1153.91 328.225 1160.63 327.033 1166.26 324.65C1172.11 322.05 1176.55 318.583 1179.58 314.25C1182.83 309.917 1184.46 304.717 1184.46 298.65C1184.46 291.5 1182.29 285.65 1177.96 281.1C1173.84 276.333 1167.56 272.65 1159.11 270.05L1112.63 255.1C1093.78 249.25 1079.59 240.475 1070.06 228.775C1060.53 217.075 1055.76 203.317 1055.76 187.5C1055.76 173.633 1059.12 161.392 1065.83 150.775C1072.77 140.158 1082.3 131.925 1094.43 126.075C1106.78 120.008 1120.87 116.975 1136.68 116.975C1151.2 116.975 1164.53 119.575 1176.66 124.775C1188.79 129.758 1199.19 136.8 1207.86 145.9C1216.74 154.783 1223.35 165.292 1227.68 177.425L1191.28 193.675C1186.52 181.542 1179.37 172.225 1169.83 165.725C1160.3 159.008 1149.25 155.65 1136.68 155.65C1129.32 155.65 1122.82 156.95 1117.18 159.55C1111.55 161.933 1107.11 165.4 1103.86 169.95C1100.83 174.283 1099.31 179.483 1099.31 185.55C1099.31 192.267 1101.48 198.225 1105.81 203.425C1110.14 208.408 1116.75 212.308 1125.63 215.125L1170.16 229.1C1189.44 235.383 1203.85 244.05 1213.38 255.1C1223.13 266.15 1228.01 279.8 1228.01 296.05C1228.01 309.917 1224.43 322.158 1217.28 332.775C1210.13 343.392 1200.28 351.733 1187.71 357.8C1175.14 363.867 1160.52 366.9 1143.83 366.9ZM1331.83 364.95C1311.9 364.95 1296.41 359.533 1285.36 348.7C1274.53 337.65 1269.11 322.158 1269.11 302.225V224.225H1238.56V186.2H1241.81C1250.48 186.2 1257.19 183.925 1261.96 179.375C1266.73 174.825 1269.11 168.217 1269.11 159.55V145.9H1311.68V186.2H1352.31V224.225H1311.68V299.95C1311.68 305.8 1312.66 310.783 1314.61 314.9C1316.78 319.017 1320.03 322.158 1324.36 324.325C1328.91 326.492 1334.65 327.575 1341.58 327.575C1343.1 327.575 1344.83 327.467 1346.78 327.25C1348.95 327.033 1351.01 326.817 1352.96 326.6V363C1349.93 363.433 1346.46 363.867 1342.56 364.3C1338.66 364.733 1335.08 364.95 1331.83 364.95ZM1435.54 366.9C1421.89 366.9 1409.97 363.867 1399.79 357.8C1389.82 351.733 1382.13 343.283 1376.71 332.45C1371.51 321.617 1368.91 308.942 1368.91 294.425V186.2H1411.49V290.85C1411.49 298.217 1412.89 304.717 1415.71 310.35C1418.74 315.767 1422.97 320.1 1428.39 323.35C1434.02 326.383 1440.3 327.9 1447.24 327.9C1454.17 327.9 1460.34 326.383 1465.76 323.35C1471.18 320.1 1475.4 315.658 1478.44 310.025C1481.47 304.392 1482.99 297.675 1482.99 289.875V186.2H1525.56V363H1485.26V328.225L1488.84 334.4C1484.72 345.233 1477.89 353.358 1468.36 358.775C1459.04 364.192 1448.1 366.9 1435.54 366.9ZM1634.36 366.9C1617.25 366.9 1601.97 362.892 1588.54 354.875C1575.1 346.642 1564.49 335.483 1556.69 321.4C1548.89 307.317 1544.99 291.717 1544.99 274.6C1544.99 257.267 1548.89 241.667 1556.69 227.8C1564.49 213.933 1575.1 202.883 1588.54 194.65C1602.19 186.417 1617.35 182.3 1634.04 182.3C1647.47 182.3 1659.39 185.008 1669.79 190.425C1680.4 195.625 1688.75 202.992 1694.81 212.525L1688.31 221.3V116.975H1730.89V363H1690.59V328.875L1695.14 337.325C1689.07 346.858 1680.62 354.225 1669.79 359.425C1658.95 364.408 1647.15 366.9 1634.36 366.9ZM1638.91 327.9C1648.66 327.9 1657.22 325.625 1664.59 321.075C1671.95 316.525 1677.7 310.242 1681.81 302.225C1686.15 294.208 1688.31 285 1688.31 274.6C1688.31 264.417 1686.15 255.317 1681.81 247.3C1677.7 239.067 1671.95 232.675 1664.59 228.125C1657.22 223.575 1648.66 221.3 1638.91 221.3C1629.38 221.3 1620.82 223.683 1613.24 228.45C1605.65 233 1599.7 239.283 1595.36 247.3C1591.25 255.1 1589.19 264.2 1589.19 274.6C1589.19 285 1591.25 294.208 1595.36 302.225C1599.7 310.242 1605.65 316.525 1613.24 321.075C1620.82 325.625 1629.38 327.9 1638.91 327.9ZM1757.5 363V186.2H1800.07V363H1757.5ZM1757.5 166.375V120.875H1800.07V166.375H1757.5ZM1912.83 366.9C1895.5 366.9 1879.68 362.892 1865.38 354.875C1851.3 346.858 1840.03 335.917 1831.58 322.05C1823.35 308.183 1819.23 292.367 1819.23 274.6C1819.23 256.833 1823.35 241.017 1831.58 227.15C1840.03 213.283 1851.3 202.342 1865.38 194.325C1879.47 186.308 1895.28 182.3 1912.83 182.3C1930.17 182.3 1945.87 186.308 1959.96 194.325C1974.04 202.342 1985.2 213.283 1993.43 227.15C2001.88 240.8 2006.11 256.617 2006.11 274.6C2006.11 292.367 2001.88 308.183 1993.43 322.05C1984.98 335.917 1973.72 346.858 1959.63 354.875C1945.55 362.892 1929.95 366.9 1912.83 366.9ZM1912.83 327.9C1922.37 327.9 1930.71 325.625 1937.86 321.075C1945.22 316.525 1950.97 310.242 1955.08 302.225C1959.42 293.992 1961.58 284.783 1961.58 274.6C1961.58 264.2 1959.42 255.1 1955.08 247.3C1950.97 239.283 1945.22 233 1937.86 228.45C1930.71 223.683 1922.37 221.3 1912.83 221.3C1903.08 221.3 1894.52 223.683 1887.16 228.45C1879.79 233 1873.94 239.283 1869.61 247.3C1865.49 255.1 1863.43 264.2 1863.43 274.6C1863.43 284.783 1865.49 293.992 1869.61 302.225C1873.94 310.242 1879.79 316.525 1887.16 321.075C1894.52 325.625 1903.08 327.9 1912.83 327.9Z" fill="white"/>
</g>
</g>
<defs>
<filter id="filter0_i_92_51" x="4.09045" y="46.0349" width="2002.02" height="380.759" filterUnits="userSpaceOnUse" color-interpolation-filters="sRGB">
<feFlood flood-opacity="0" result="BackgroundImageFix"/>
<feBlend mode="normal" in="SourceGraphic" in2="BackgroundImageFix" result="shape"/>
<feColorMatrix in="SourceAlpha" type="matrix" values="0 0 0 0 0 0 0 0 0 0 0 0 0 0 0 0 0 0 127 0" result="hardAlpha"/>
<feOffset dy="4"/>
<feGaussianBlur stdDeviation="2"/>
<feComposite in2="hardAlpha" operator="arithmetic" k2="-1" k3="1"/>
<feColorMatrix type="matrix" values="0 0 0 0 0 0 0 0 0 0 0 0 0 0 0 0 0 0 0.25 0"/>
<feBlend mode="normal" in2="shape" result="effect1_innerShadow_92_51"/>
</filter>
<filter id="filter1_d_92_51" x="0.0904541" y="46.0349" width="277.18" height="384.759" filterUnits="userSpaceOnUse" color-interpolation-filters="sRGB">
<feFlood flood-opacity="0" result="BackgroundImageFix"/>
<feColorMatrix in="SourceAlpha" type="matrix" values="0 0 0 0 0 0 0 0 0 0 0 0 0 0 0 0 0 0 127 0" result="hardAlpha"/>
<feOffset dy="4"/>
<feGaussianBlur stdDeviation="2"/>
<feComposite in2="hardAlpha" operator="out"/>
<feColorMatrix type="matrix" values="0 0 0 0 0 0 0 0 0 0 0 0 0 0 0 0 0 0 0.25 0"/>
<feBlend mode="normal" in2="BackgroundImageFix" result="effect1_dropShadow_92_51"/>
<feBlend mode="normal" in="SourceGraphic" in2="effect1_dropShadow_92_51" result="shape"/>
</filter>
<filter id="filter2_i_92_51" x="369.577" y="116.975" width="1637.53" height="250.925" filterUnits="userSpaceOnUse" color-interpolation-filters="sRGB">
<feFlood flood-opacity="0" result="BackgroundImageFix"/>
<feBlend mode="normal" in="SourceGraphic" in2="BackgroundImageFix" result="shape"/>
<feColorMatrix in="SourceAlpha" type="matrix" values="0 0 0 0 0 0 0 0 0 0 0 0 0 0 0 0 0 0 127 0" result="hardAlpha"/>
<feMorphology radius="1" operator="erode" in="SourceAlpha" result="effect1_innerShadow_92_51"/>
<feOffset dx="1" dy="1"/>
<feGaussianBlur stdDeviation="10"/>
<feComposite in2="hardAlpha" operator="arithmetic" k2="-1" k3="1"/>
<feColorMatrix type="matrix" values="0 0 0 0 0.0192308 0 0 0 0 0.0192308 0 0 0 0 0.0192308 0 0 0 0.25 0"/>
<feBlend mode="normal" in2="shape" result="effect1_innerShadow_92_51"/>
</filter>
</defs>
</svg>
