<svg width="2020" height="461" viewBox="0 0 2020 461" fill="none" xmlns="http://www.w3.org/2000/svg">
<g filter="url(#filter0_i_92_51)">
<path d="M67.2805 46.0409L67.8953 46.0384C68.569 46.0361 69.243 46.0378 69.9169 46.0396C70.4024 46.0389 70.8879 46.0379 71.3734 46.0367C72.5518 46.0343 73.7302 46.0349 74.9085 46.0363C75.8666 46.0376 76.8247 46.0379 77.783 46.0372L78.1972 46.0369L79.0307 46.0363C81.6312 46.0349 84.2319 46.0367 86.8325 46.0396C89.061 46.0418 91.2895 46.0417 93.5181 46.0391C96.5242 46.0354 99.5304 46.0349 102.537 46.0374C103.493 46.0378 104.449 46.0372 105.406 46.0358C106.572 46.0342 107.739 46.0348 108.905 46.0376C109.499 46.0392 110.094 46.0393 110.688 46.0378C111.334 46.0363 111.98 46.0382 112.625 46.0409L113.188 46.0372C114.729 46.0499 116.255 46.2978 117.571 47.1923L118.002 47.4834L118.403 47.7674L118.76 48.011C119.401 48.4656 119.896 48.9332 120.329 49.6077V49.9758H120.679C120.879 50.3696 121.076 50.7646 121.271 51.1606L121.439 51.4908C122.226 53.1018 122.327 54.7712 122.442 56.555C122.469 56.9604 122.497 57.3659 122.525 57.7715L122.56 58.3089C122.596 58.7982 122.596 58.7982 122.692 59.2258C122.793 59.7966 122.83 60.3504 122.86 60.9303L122.899 61.6569L122.919 62.0433C122.94 62.4471 122.961 62.8508 122.983 63.2545C123.045 64.4024 123.106 65.5502 123.166 66.698C123.21 67.5372 123.255 68.3763 123.301 69.2154L123.323 69.6309C123.402 71.0598 123.486 72.4842 123.658 73.9046C123.845 75.447 123.921 76.9949 124.001 78.5465L124.022 78.9552C124.088 80.2214 124.152 81.4876 124.213 82.7537C124.247 83.4531 124.282 84.1525 124.32 84.8521C124.333 85.1149 124.346 85.3778 124.358 85.6407C124.429 87.1947 124.592 88.6147 125.058 90.0954L125.489 90.1952C127.941 90.7664 130.344 91.4908 132.72 92.3466C133.367 92.5781 134.015 92.8041 134.663 93.0306C135.211 93.2221 135.759 93.4141 136.306 93.6066C136.909 93.8177 137.512 94.0274 138.117 94.2333C139.132 94.5804 140.125 94.9383 141.093 95.4129C141.678 95.6905 142.272 95.9411 142.868 96.1916L143.202 96.3333C143.86 96.6088 144.526 96.8607 145.2 97.0888V97.4568L145.622 97.5021C146.439 97.6825 147.138 98.0215 147.892 98.3886L148.361 98.6135C149.661 99.2422 150.943 99.906 152.217 100.589C152.56 100.771 152.903 100.952 153.247 101.13C154.608 101.838 155.957 102.567 157.296 103.319C158.103 103.771 158.917 104.209 159.736 104.634V105.002L160.207 105.152C160.787 105.37 160.787 105.37 161.214 105.669C161.828 106.016 162.2 106.022 162.889 105.922C163.446 105.608 163.916 105.214 164.359 104.742C164.723 104.365 165.117 104.038 165.516 103.703C166.391 102.956 167.227 102.175 168.057 101.373C168.506 100.943 168.964 100.522 169.428 100.11C170.288 99.3421 171.129 98.5535 171.964 97.7559C172.57 97.1799 173.189 96.6278 173.825 96.0882C174.496 95.5164 175.149 94.9218 175.784 94.3052C176.486 93.626 177.208 93.0028 177.967 92.3966C178.407 92.0324 178.786 91.6207 179.177 91.1996C180.053 90.3417 180.95 89.5176 181.881 88.7268C182.731 88.0041 183.54 87.2436 184.345 86.4664C184.792 86.0378 185.248 85.6186 185.711 85.2091C185.937 85.0055 186.161 84.799 186.382 84.5895L186.763 84.2293L187.112 83.8971C187.409 83.6542 187.409 83.6542 187.759 83.6542L187.935 83.1021C190.313 81.2349 193.024 80.9579 195.886 81.3416C198.207 81.8569 199.981 83.3853 201.596 85.1265L202.034 85.5866L202.472 86.0467L202.92 86.5068C203.329 86.947 203.683 87.4074 204.048 87.887C204.468 88.3508 204.886 88.7754 205.361 89.1753C205.836 89.5743 206.251 90.0065 206.675 90.4635L207.113 90.9236L207.551 91.3837L207.999 91.8438C208.426 92.3039 208.426 92.3039 208.777 92.7755C209.109 93.234 209.109 93.234 209.532 93.5577C210.066 94.0148 210.484 94.5239 210.932 95.0723C211.429 95.6759 211.949 96.222 212.542 96.7207C213.017 97.1197 213.431 97.552 213.856 98.009L214.294 98.469L214.732 98.9291L215.18 99.3892C215.589 99.8294 215.943 100.29 216.308 100.769C216.728 101.233 217.146 101.658 217.621 102.058C218.096 102.457 218.511 102.889 218.935 103.346L219.373 103.806L219.811 104.266L220.259 104.726C220.686 105.186 220.686 105.186 221.037 105.658C221.369 106.116 221.369 106.116 221.792 106.44C222.326 106.897 222.744 107.406 223.192 107.955C223.689 108.558 224.209 109.104 224.802 109.603C225.277 110.002 225.692 110.434 226.116 110.891L226.554 111.351L226.992 111.812L227.44 112.272C227.849 112.712 228.203 113.172 228.568 113.652C228.988 114.116 229.406 114.54 229.881 114.94C230.356 115.339 230.771 115.771 231.195 116.228L231.633 116.689L232.071 117.149L232.52 117.609C233.647 118.824 233.647 118.824 233.647 119.357L234.173 119.541C234.441 119.997 234.441 119.997 234.709 120.576L234.978 121.147C236.067 123.819 235.892 126.757 235.048 129.479H234.698L234.567 129.971C234.333 130.623 234.064 131.02 233.636 131.549L233.213 132.076C232.657 132.746 232.092 133.408 231.519 134.063C231.171 134.46 231.171 134.459 230.845 135H230.494L230.374 135.403C230.153 135.901 229.924 136.183 229.548 136.556C228.407 137.718 227.4 139.033 226.371 140.303C225.84 140.956 225.299 141.6 224.748 142.235C224.151 142.925 223.6 143.638 223.069 144.385C222.766 144.784 222.434 145.132 222.088 145.49C221.899 145.71 221.713 145.933 221.529 146.157C221.054 146.731 220.573 147.298 220.084 147.859C219.432 148.618 218.821 149.402 218.218 150.205C217.81 150.74 217.384 151.255 216.95 151.767C216.565 152.226 216.196 152.699 215.828 153.173C215.607 153.404 215.607 153.404 215.257 153.404L215.104 153.737C214.907 154.14 214.907 154.14 214.556 154.692H214.206L214.081 154.998C213.701 155.724 213.148 156.308 212.629 156.927C212.235 157.519 212.112 157.836 212.104 158.557C212.485 159.781 213.171 160.883 213.779 161.996C213.984 162.372 214.189 162.748 214.393 163.125L214.666 163.626C215.257 164.736 215.257 164.736 215.257 165.366H215.607L215.773 165.731L216.527 167.39L216.787 167.965C217.154 168.771 217.521 169.576 217.905 170.373C218.266 171.127 218.591 171.896 218.913 172.67C219.333 173.672 219.76 174.67 220.205 175.66C221.387 178.338 221.387 178.338 221.387 179.352H221.737L221.904 179.892C222.414 181.524 222.414 181.524 223.007 183.125C223.289 183.839 223.425 184.473 223.489 185.242H223.839L223.981 185.764C224.491 187.619 225.044 189.456 225.611 191.293C225.94 192.367 226.247 193.441 226.51 194.535C226.856 196.252 226.856 196.252 227.806 197.608C228.378 197.814 228.944 197.835 229.542 197.86C230.783 197.918 230.783 197.918 231.37 198.124C231.827 198.166 232.282 198.2 232.74 198.227L233.162 198.253C233.464 198.272 233.767 198.29 234.07 198.308C234.548 198.337 235.026 198.367 235.505 198.397C236.52 198.46 237.536 198.522 238.551 198.584C239.728 198.656 240.904 198.728 242.081 198.802C242.553 198.831 243.024 198.86 243.496 198.888L244.362 198.942L244.761 198.965C245.296 198.999 245.746 199.049 246.257 199.228C246.716 199.269 247.172 199.302 247.632 199.328L248.056 199.353C248.36 199.371 248.664 199.389 248.968 199.407C249.449 199.435 249.931 199.464 250.412 199.493C251.781 199.576 253.151 199.658 254.52 199.738C255.357 199.787 256.195 199.837 257.033 199.889C257.351 199.908 257.67 199.927 257.989 199.945C258.435 199.97 258.882 199.998 259.329 200.025L259.725 200.046C260.533 200.099 261.25 200.259 262.02 200.517L262.455 200.628C264.841 201.272 266.711 202.939 267.975 205.117C268.982 207.072 269.254 208.914 269.247 211.117C269.248 211.324 269.248 211.532 269.249 211.745C269.251 212.437 269.25 213.128 269.249 213.819L269.252 215.31C269.254 216.518 269.255 217.726 269.254 218.933C269.254 220.342 269.254 221.75 269.256 223.158C269.257 225.824 269.258 228.49 269.256 231.157C269.255 233.592 269.257 236.028 269.261 238.463C269.264 240.968 269.266 243.473 269.265 245.978C269.264 247.382 269.265 248.787 269.267 250.192C269.27 251.388 269.27 252.583 269.268 253.779C269.267 254.388 269.267 254.998 269.269 255.607C269.27 256.27 269.269 256.932 269.267 257.594L269.271 258.17C269.258 259.908 268.932 261.565 268.205 263.134L267.973 263.644L267.8 264.009H267.45L267.322 264.422C267.069 264.998 266.803 265.269 266.344 265.677L265.913 266.06L265.523 266.401L265.107 266.804C262.946 268.372 260.533 268.478 257.992 268.61C256.502 268.689 255.021 268.786 253.537 268.965C251.977 269.151 250.413 269.255 248.846 269.352L248.463 269.376C247.549 269.432 246.635 269.487 245.721 269.541C244.796 269.596 243.871 269.652 242.946 269.709C242.579 269.731 242.211 269.753 241.844 269.774L241.175 269.815L240.586 269.85C240.131 269.868 240.131 269.868 239.777 270.082C239.4 270.12 239.022 270.147 238.644 270.17L238.292 270.192C237.907 270.216 237.522 270.238 237.138 270.261L236.338 270.309C235.636 270.352 234.934 270.394 234.232 270.436C233.516 270.478 232.8 270.522 232.084 270.565C230.678 270.65 229.273 270.735 227.867 270.818V271.186L227.547 271.471C227.004 272.116 226.884 272.79 226.685 273.613C226.596 273.961 226.506 274.31 226.415 274.658L226.27 275.215C226.005 276.199 225.704 277.172 225.404 278.145L225.046 279.309L224.875 279.865C224.73 280.338 224.588 280.813 224.449 281.289L224.331 281.693C224.231 282.037 224.132 282.38 224.033 282.724C223.826 283.374 223.572 283.992 223.314 284.621C223.227 284.906 223.147 285.194 223.073 285.483C222.828 286.371 222.503 287.204 222.156 288.052C221.831 288.876 221.539 289.711 221.252 290.55C220.993 291.296 220.687 291.994 220.342 292.701C220.019 293.389 219.749 294.102 219.471 294.812C218.984 296.042 218.473 297.243 217.884 298.423C217.09 300.063 216.341 301.722 215.607 303.392H215.257L215.167 303.716C214.893 304.641 214.57 305.356 214.031 306.153L213.786 306.669C213.508 307.252 213.196 307.795 212.871 308.35C212.237 309.482 212.237 309.482 212.104 310.754C212.481 311.522 212.993 312.161 213.527 312.813L213.785 313.13C214.31 313.772 214.845 314.407 215.388 315.032C215.989 315.726 216.543 316.442 217.078 317.193C217.381 317.593 217.712 317.941 218.059 318.299C218.281 318.55 218.5 318.803 218.716 319.058L219.042 319.439C219.285 319.771 219.285 319.771 219.285 320.139L219.811 320.323C220.058 320.613 220.295 320.913 220.522 321.221C221.082 321.958 221.653 322.667 222.263 323.36C223.12 324.34 223.921 325.36 224.715 326.397C225.101 326.896 225.485 327.39 225.919 327.846C226.574 328.534 227.165 329.281 227.77 330.017L228.934 331.432C229.491 332.107 230.053 332.775 230.626 333.436C231.565 334.525 232.445 335.665 233.31 336.82C233.62 337.241 233.62 337.241 233.915 337.516C235.353 339.14 235.753 341.496 235.747 343.623C235.683 344.994 235.451 346.257 235.048 347.561H234.698L234.599 348.009C233.925 349.764 232.462 351.05 231.195 352.345C230.903 352.652 230.611 352.958 230.319 353.266C229.88 353.728 229.44 354.19 228.995 354.646C228.569 355.087 228.569 355.086 228.25 355.543C227.822 356.083 227.351 356.51 226.843 356.966C226.221 357.542 225.645 358.165 225.065 358.787C223.314 360.627 223.314 360.627 222.865 361.087C222.439 361.528 222.439 361.528 222.12 361.984C221.692 362.524 221.22 362.951 220.713 363.407C220.091 363.983 219.515 364.606 218.935 365.228C217.184 367.068 217.184 367.068 216.735 367.528C216.309 367.969 216.309 367.969 215.99 368.426C215.562 368.966 215.09 369.393 214.583 369.848C213.961 370.424 213.385 371.048 212.805 371.669C211.054 373.51 211.054 373.51 210.605 373.97C210.179 374.41 210.179 374.41 209.86 374.867C209.432 375.407 208.96 375.834 208.453 376.289C207.831 376.865 207.255 377.489 206.675 378.11C204.924 379.951 204.924 379.951 204.475 380.411C204.049 380.851 204.049 380.851 203.73 381.308C203.303 381.847 202.831 382.274 202.324 382.729C201.611 383.389 200.946 384.106 200.293 384.831C198.122 386.993 195.74 387.615 192.837 387.542C191.982 387.486 191.333 387.318 190.562 386.944L190.107 386.761C188.158 385.929 186.704 384.4 185.205 382.893C184.733 382.424 184.307 382.093 183.731 381.791C183.434 381.49 183.142 381.184 182.855 380.871C182.533 380.554 182.208 380.24 181.881 379.928L181.388 379.455C180.948 379.035 180.948 379.035 180.519 378.721C180.423 378.641 180.327 378.561 180.228 378.478V378.11L179.919 377.964C179.509 377.732 179.213 377.474 178.871 377.144C178.394 376.694 177.911 376.276 177.393 375.879C176.825 375.44 176.343 374.961 175.85 374.43C175.296 373.902 174.726 373.392 174.159 372.879L173.168 371.98L172.823 371.667C172.133 371.038 171.452 370.399 170.781 369.748C170.146 369.135 169.478 368.561 168.779 368.03C168.414 367.742 168.11 367.412 167.793 367.068C167.461 366.757 167.125 366.452 166.79 366.146C166.363 365.754 165.945 365.353 165.527 364.952C165.232 364.675 164.937 364.399 164.641 364.124L164.228 363.732C163.385 362.974 163.385 362.974 162.331 362.72C161.627 362.842 161.225 363.009 160.612 363.388C160.321 363.553 160.029 363.718 159.736 363.882C158.989 364.311 158.251 364.756 157.514 365.205C156.298 365.942 155.049 366.602 153.789 367.251C153.194 367.559 152.601 367.872 152.008 368.184L151.311 368.55C150.863 368.785 150.415 369.022 149.969 369.262C148.807 369.883 147.644 370.445 146.426 370.933C145.966 371.133 145.506 371.333 145.047 371.534C144.674 371.669 144.674 371.669 144.149 371.669V372.037C143.81 372.161 143.47 372.284 143.131 372.405L142.558 372.612C142.047 372.773 142.047 372.773 141.522 372.773V373.141L140.996 373.323L140.296 373.567L139.951 373.686C139.369 373.887 138.79 374.102 138.216 374.33C137.399 374.655 136.571 374.946 135.742 375.235L135.253 375.405C133.324 376.075 131.385 376.712 129.437 377.317L129.075 377.43C126.867 378.11 126.867 378.11 125.934 378.11V378.478L125.529 378.547C124.876 378.962 124.843 379.366 124.645 380.118C124.428 381.214 124.392 382.325 124.341 383.441C124.326 383.707 124.312 383.972 124.298 384.237C124.261 384.933 124.226 385.629 124.192 386.325C124.131 387.565 124.066 388.804 124.001 390.043L123.98 390.448C123.897 392.025 123.79 393.593 123.614 395.162C123.461 396.581 123.385 398.005 123.307 399.43L123.285 399.827C123.233 400.777 123.182 401.728 123.132 402.679C123.074 403.762 123.016 404.845 122.956 405.928L122.935 406.321C122.835 408.109 122.704 409.888 122.503 411.667C122.433 412.321 122.389 412.972 122.354 413.629C122.178 416.067 121.309 418.167 119.629 419.886C119.178 420.281 118.711 420.642 118.227 420.991L117.746 421.344C115.299 422.988 112.563 422.779 109.765 422.769C109.282 422.77 108.8 422.772 108.318 422.775C107.15 422.779 105.981 422.779 104.813 422.777C103.862 422.776 102.911 422.776 101.961 422.777L101.549 422.778L100.721 422.779C98.138 422.783 95.5551 422.78 92.9723 422.776C90.7619 422.773 88.5516 422.775 86.3412 422.781C83.4923 422.789 80.6434 422.791 77.7946 422.788L77.3845 422.787C76.4364 422.787 75.4884 422.788 74.5404 422.792C73.3829 422.796 72.2254 422.795 71.0678 422.79C70.4785 422.787 69.8893 422.788 69.3001 422.791C66.7293 422.805 64.5343 422.699 62.1815 421.543V421.175L61.8313 421.071C60.0346 420.166 58.6974 418.299 57.9781 416.39C57.5856 415.065 57.522 413.743 57.4416 412.364C57.4148 411.916 57.3872 411.468 57.359 411.02L57.3239 410.423C57.3047 409.951 57.3047 409.951 57.1024 409.58C57.0618 409.097 57.0293 408.613 57.0048 408.128L56.9798 407.674C56.9619 407.348 56.9444 407.022 56.9271 406.695C56.8996 406.18 56.8716 405.664 56.843 405.148C56.7826 404.053 56.7236 402.958 56.6645 401.863C56.5963 400.594 56.5273 399.326 56.4573 398.058C56.4295 397.549 56.4023 397.04 56.3755 396.532L56.3242 395.597L56.3022 395.167C56.2699 394.596 56.2246 394.114 56.0515 393.569C56.0176 393.174 55.9905 392.778 55.9701 392.381L55.9501 392.018C55.9288 391.622 55.9078 391.226 55.8872 390.83C55.8724 390.554 55.8574 390.277 55.8422 390.001C55.8026 389.273 55.7635 388.544 55.7249 387.816C55.6632 386.654 55.6008 385.491 55.5375 384.329C55.5156 383.925 55.4942 383.52 55.4732 383.116C55.4953 380.879 55.4953 380.879 54.8255 378.847C53.8421 378.22 52.6282 377.973 51.5253 377.675C48.3259 376.806 45.1847 375.629 42.074 374.463C41.26 374.161 40.4422 373.87 39.6208 373.59C38.6232 373.245 37.6585 372.85 36.6961 372.408C36.3287 372.249 35.9484 372.125 35.5597 372.037V371.669L35.1876 371.574L34.684 371.439L34.1913 371.31C33.6239 371.114 33.1277 370.863 32.5986 370.575C32.1201 370.321 31.6309 370.1 31.1389 369.877C29.412 369.093 27.7455 368.213 26.102 367.252L25.5801 366.951L25.2263 366.7V366.332L25.7867 366.007C27.2698 365.145 28.7473 364.274 30.2179 363.388C31.4232 362.663 32.6296 361.939 33.8411 361.225L34.2447 360.985C35.1688 360.443 35.1688 360.443 35.5597 360.443V360.075L35.8486 359.918C36.2852 359.679 36.7217 359.44 37.1579 359.201L37.6122 358.953C38.4207 358.509 39.1843 358.041 39.9383 357.498C40.217 357.333 40.498 357.172 40.7811 357.015C41.6519 356.524 42.5035 356.004 43.3536 355.474C44.3134 354.877 45.2767 354.294 46.26 353.741C46.6746 353.503 47.0869 353.261 47.4968 353.015L47.883 352.784C48.1364 352.632 48.3895 352.479 48.6423 352.326C49.5323 351.793 49.5323 351.793 49.9215 351.793V351.425L50.2245 351.276C51.3214 350.719 52.3488 350.081 53.3766 349.395C53.9004 349.064 54.4271 348.778 54.9751 348.496C55.8069 348.055 56.6113 347.559 57.4205 347.075L57.8289 346.833L58.1967 346.614C58.5035 346.456 58.5035 346.456 58.8538 346.456V346.088L59.1446 345.945C60.2175 345.401 61.2323 344.783 62.249 344.133C63.203 343.526 64.1754 342.961 65.159 342.408C66.255 341.784 66.255 341.784 67.2935 341.062C67.8809 340.691 68.1622 340.664 68.837 340.751L69.344 340.917C70.3079 341.213 71.3043 341.335 72.2961 341.487C72.6893 341.549 73.0825 341.61 73.4755 341.671L74.065 341.763C74.5444 341.844 75.0175 341.938 75.4932 342.039C77.064 342.345 78.6645 342.455 80.2541 342.603L80.7748 342.652C83.3329 342.893 85.8841 343.099 88.4531 343.144L88.8172 343.152C92.2605 343.226 95.7189 343.036 99.1417 342.648C99.7452 342.584 100.349 342.522 100.953 342.464C103.292 342.234 105.589 341.963 107.894 341.487C108.162 341.438 108.429 341.39 108.697 341.343L109.105 341.27C109.361 341.225 109.617 341.18 109.872 341.136C110.584 341.007 111.239 340.811 111.922 340.567C112.362 340.461 112.804 340.361 113.247 340.268C113.471 340.22 113.695 340.172 113.926 340.123C114.444 340.034 114.903 339.992 115.425 340.015V339.647L115.754 339.571C116.254 339.455 116.753 339.339 117.253 339.222L117.77 339.103C118.815 338.856 119.844 338.546 120.855 338.175C121.283 338.039 121.712 337.908 122.142 337.778C122.637 337.612 123.122 337.422 123.608 337.228C124.042 337.057 124.477 336.891 124.913 336.727C127.272 335.837 127.272 335.837 129.586 334.828C129.962 334.678 129.962 334.678 130.488 334.678V334.31L130.887 334.161C132.118 333.683 133.282 333.139 134.449 332.512C135.526 331.934 136.618 331.391 137.715 330.856C138.545 330.448 139.356 330 140.148 329.515C140.471 329.341 140.471 329.341 140.821 329.341V328.973L141.147 328.809C142.206 328.266 143.203 327.665 144.193 326.995L144.63 326.701C144.92 326.505 145.21 326.31 145.499 326.114C145.848 325.88 146.198 325.647 146.549 325.417C147.902 324.522 149.195 323.563 150.478 322.562L150.867 322.261L151.215 321.989C151.505 321.796 151.505 321.796 151.855 321.796L152.03 321.244C152.268 321.067 152.51 320.896 152.756 320.731C153.972 319.894 155.074 318.862 156.184 317.88C156.584 317.563 156.584 317.563 156.934 317.563L157.066 317.218C157.33 316.745 157.523 316.695 157.985 316.459C158.279 316.154 158.571 315.848 158.861 315.538C159.117 315.29 159.374 315.041 159.632 314.794C160.994 313.482 162.312 312.122 163.622 310.752C163.832 310.533 164.042 310.314 164.253 310.095C165.306 309 166.332 307.92 167.211 306.661C167.539 306.202 167.928 305.817 168.319 305.417C168.679 304.996 169.025 304.563 169.369 304.128L169.725 303.68C171.099 301.934 172.415 300.138 173.671 298.297L173.899 297.962C174.291 297.384 174.291 297.384 174.624 296.767H174.974L175.11 296.369C175.34 295.808 175.619 295.349 175.948 294.846L176.328 294.256L176.527 293.949C180.014 288.508 183.207 282.584 185.395 276.431C185.641 275.75 185.892 275.079 186.183 274.418C186.612 273.425 186.946 272.398 187.287 271.369C187.417 270.979 187.548 270.589 187.68 270.199L187.957 269.38L188.085 269.001C188.211 268.625 188.336 268.249 188.46 267.873L188.593 267.475C188.927 266.455 189.185 265.426 189.423 264.377C189.63 263.465 189.843 262.568 190.134 261.682C190.375 260.946 190.527 260.23 190.66 259.465C190.772 258.823 190.881 258.213 191.084 257.596C191.258 257.029 191.36 256.496 191.444 255.907L191.534 255.292L191.623 254.657C191.683 254.238 191.744 253.819 191.805 253.4L191.884 252.84C191.963 252.414 191.963 252.414 192.138 252.23C192.202 251.78 192.255 251.333 192.302 250.881L192.347 250.464C192.379 250.172 192.41 249.879 192.441 249.586C192.488 249.145 192.535 248.704 192.583 248.264C192.736 246.838 192.878 245.414 192.971 243.982C193.014 243.581 193.014 243.581 193.189 243.213C193.473 240.475 193.391 237.693 193.386 234.944C193.386 234.575 193.386 234.206 193.387 233.838C193.396 230.449 193.396 230.449 193.286 227.063C193.279 226.929 193.272 226.795 193.265 226.658C193.229 225.987 193.229 225.987 193.014 225.361C192.966 224.955 192.928 224.548 192.894 224.141C192.883 224.018 192.873 223.896 192.862 223.77C192.84 223.508 192.818 223.246 192.796 222.984C192.74 222.31 192.68 221.635 192.621 220.961L192.586 220.563C192.502 219.612 192.412 218.661 192.302 217.712L192.231 217.09C192.148 216.52 192.148 216.52 191.974 215.948C191.67 214.793 191.525 213.61 191.35 212.427C191.207 211.487 191.042 210.617 190.737 209.718C190.63 209.225 190.528 208.73 190.43 208.235C189.807 205.222 188.925 202.301 188 199.378L187.875 198.981C187.41 197.512 186.922 196.059 186.358 194.627L186.109 193.96C185.041 191.108 183.831 188.34 182.505 185.61C182.242 185.066 181.979 184.521 181.717 183.976L181.531 183.594C181.104 182.707 181.104 182.707 181.104 182.297H180.754C180.636 182.029 180.52 181.761 180.403 181.492L180.206 181.039C180.053 180.641 180.053 180.641 180.053 180.273H179.703L179.554 179.935C179.081 178.894 178.54 177.973 177.897 177.04C177.623 176.625 177.39 176.209 177.163 175.764C176.761 174.974 176.287 174.255 175.788 173.53C174.974 172.305 174.974 172.305 174.974 171.807H174.624C173.923 170.811 173.923 170.811 173.923 170.335H173.573C173.333 170.011 173.333 170.011 173.069 169.576L172.787 169.118L172.522 168.678C172.058 167.912 172.058 167.912 171.494 167.231C171.105 166.822 170.765 166.393 170.42 165.941C169.686 164.99 168.934 164.058 168.172 163.132C167.793 162.671 167.421 162.209 167.06 161.732C166.732 161.287 166.732 161.287 166.261 160.823C165.867 160.397 165.867 160.397 165.867 160.029L165.571 159.902C164.734 159.403 164.182 158.599 163.59 157.82C163.301 157.51 163.009 157.203 162.714 156.9L162.276 156.429C161.851 155.978 161.851 155.978 161.4 155.612C160.926 155.213 160.516 154.776 160.087 154.324C158.789 153.034 157.451 151.819 156.058 150.643C155.715 150.348 155.372 150.053 155.03 149.757C152.953 147.969 150.85 146.192 148.575 144.688L148.233 144.461C148.009 144.313 147.784 144.166 147.559 144.021C147.292 143.846 147.033 143.657 146.776 143.466V143.098L146.428 142.968C145.735 142.655 145.103 142.26 144.455 141.855L144.05 141.604C143.393 141.194 142.749 140.776 142.124 140.314C141.353 139.759 140.523 139.34 139.684 138.911C138.603 138.354 137.554 137.745 136.509 137.117C135.633 136.595 134.739 136.156 133.815 135.736C133.446 135.557 133.078 135.377 132.71 135.196C131.016 134.374 129.309 133.657 127.549 133.009C127.105 132.839 126.668 132.647 126.24 132.435C125.332 131.994 124.382 131.684 123.432 131.359C122.707 131.111 121.992 130.851 121.282 130.56C120.349 130.195 119.394 129.972 118.425 129.742C117.652 129.558 116.911 129.338 116.164 129.058C115.485 128.828 114.789 128.676 114.093 128.514C113.703 128.423 113.314 128.328 112.927 128.23C111.803 127.947 110.688 127.729 109.545 127.558C108.983 127.461 108.442 127.331 107.891 127.186C106.662 126.882 105.438 126.731 104.183 126.603C103.764 126.559 103.346 126.515 102.928 126.47C102.746 126.451 102.564 126.432 102.377 126.413C101.939 126.35 101.939 126.35 101.589 126.166C101.295 126.128 101.001 126.098 100.706 126.074L100.153 126.028L99.5528 125.982L98.9293 125.934C88.4287 124.65 88.4287 124.65 78.2948 126.35C78.0194 126.389 77.7431 126.418 77.4663 126.444C75.5538 126.636 73.678 126.863 71.794 127.258L71.3356 127.352C70.5817 127.507 69.8294 127.67 69.0787 127.841C66.5706 128.384 66.5706 128.384 65.3305 127.54L64.9838 127.271C64.7223 127.104 64.4595 126.939 64.1957 126.776L63.7649 126.499C62.9329 125.98 62.0838 125.493 61.2351 125.005C60.4687 124.564 59.7172 124.095 58.9818 123.599C58.6053 123.359 58.2188 123.188 57.803 123.038V122.67L57.376 122.543C55.9347 121.985 54.6332 121.051 53.3158 120.23C52.5597 119.76 51.797 119.303 51.0279 118.858C50.3124 118.44 49.6027 118.013 48.8925 117.586L48.4126 117.298C47.6153 116.819 46.82 116.337 46.0267 115.851C43.9806 114.592 43.9806 114.592 41.8649 113.468V113.1L41.4489 112.985C40.7492 112.706 40.1669 112.338 39.532 111.927C39.0863 111.643 38.6353 111.38 38.1759 111.121C36.9358 110.418 35.7273 109.658 34.5146 108.904C34.0061 108.588 33.4971 108.273 32.9874 107.958L32.5145 107.666C32.2038 107.482 31.8884 107.307 31.5684 107.142C30.7149 106.688 29.9022 106.163 29.0819 105.646L28.6943 105.403L28.3449 105.183C28.0044 104.976 28.0044 104.976 27.5031 104.818V104.45L27.0761 104.335C26.2579 104.003 25.5895 103.508 24.876 102.978C25.1156 101.999 25.665 101.63 26.4523 101.138C26.9075 100.879 27.3712 100.649 27.8424 100.424L28.2307 100.236C29.2423 99.7473 30.2618 99.2773 31.2843 98.8145C31.8819 98.543 32.4663 98.2591 33.042 97.9399C33.6071 97.6541 34.0631 97.5222 34.684 97.4568V97.0888L35.1586 96.9134C36.2494 96.5078 37.3332 96.0926 38.4051 95.6343C39.0262 95.3743 39.6516 95.1268 40.2776 94.8804L40.6132 94.748C40.9718 94.6074 41.3307 94.4675 41.6898 94.3282L42.132 94.1553C43.3286 93.6919 44.5351 93.2719 45.7508 92.8676L46.334 92.6727C46.7158 92.5453 47.0977 92.4182 47.4796 92.2912C47.9109 92.1476 48.3419 92.0035 48.7727 91.8589C49.7653 91.5283 50.752 91.2088 51.7605 90.9372L52.266 90.7972C52.5927 90.7071 52.9202 90.6208 53.2487 90.5382L53.7008 90.4125L54.1025 90.3076C54.6877 89.9745 54.8763 89.6149 55.1758 88.9912C55.304 88.3397 55.342 87.6912 55.3776 87.0279L55.4163 86.4436C55.4566 85.8207 55.4916 85.1977 55.5261 84.5744L55.5988 83.3259C55.6825 81.8485 55.758 80.3703 55.8331 78.8923C55.8656 78.2604 55.8985 77.6286 55.9317 76.9967L55.9606 76.413L55.989 75.8756L56.0128 75.4045C56.0515 75.0046 56.0515 75.0046 56.2267 74.4525C56.267 73.9666 56.2988 73.4833 56.3242 72.9964L56.3493 72.5473C56.3671 72.2256 56.3847 71.9039 56.402 71.5821C56.4294 71.0731 56.4574 70.5643 56.486 70.0555C56.5462 68.9753 56.6057 67.8952 56.6645 66.815C56.7327 65.5636 56.8018 64.3121 56.8717 63.0605C56.8997 62.5586 56.9265 62.0568 56.9535 61.5549L57.0048 60.6336L57.0269 60.2094C57.0593 59.6431 57.1057 59.1665 57.2775 58.6254C57.3094 58.2829 57.3336 57.9395 57.3529 57.5959L57.3917 56.9748C57.4174 56.5475 57.442 56.12 57.4656 55.6925C57.6149 53.3751 58.0876 51.6845 59.3793 49.7917L59.7733 49.2052C60.6781 48.2328 61.7349 47.2048 63.0573 47.0312V46.6632C64.4885 46.2235 65.7923 46.031 67.2805 46.0409Z" fill="white"/>
<path d="M6.57342 151.322L7.16996 151.301C8.92735 151.402 10.4833 152.346 11.9482 153.288C12.3171 153.52 12.6863 153.752 13.0558 153.983L13.6245 154.34C14.5344 154.904 15.4578 155.442 16.3815 155.98C17.998 156.925 19.5992 157.894 21.1944 158.879C22.4423 159.646 23.6998 160.394 24.9635 161.133C26.5801 162.078 28.1812 163.047 29.7764 164.032C31.0243 164.799 32.282 165.547 33.5455 166.286C35.1481 167.225 36.7408 168.183 38.3231 169.159C39.6594 169.982 41.0014 170.794 42.3465 171.6L42.6565 171.786C43.177 172.098 43.6976 172.41 44.2181 172.721C45.1418 173.275 46.0653 173.829 46.9885 174.384L48.5203 175.304L49.1333 175.672L49.4398 175.856L126.371 222.048C127.5 222.726 128.629 223.404 129.759 224.081C130.27 224.388 130.782 224.695 131.293 225.003C132.216 225.559 133.139 226.113 134.069 226.658C134.382 226.842 134.696 227.028 135.009 227.213C135.397 227.443 135.786 227.671 136.176 227.897C138.107 229.047 139.404 230.372 140.082 232.626C140.495 234.426 140.292 236.259 139.42 237.876C138.395 239.403 137.099 240.295 135.567 241.188L134.595 241.762C134.039 242.09 133.482 242.417 132.925 242.742C131.637 243.497 130.357 244.267 129.086 245.053C127.484 246.042 125.868 247.002 124.244 247.952C122.989 248.688 121.744 249.441 120.504 250.206C118.902 251.195 117.286 252.155 115.662 253.105C114.407 253.841 113.162 254.594 111.922 255.359C110.32 256.348 108.704 257.308 107.08 258.258C105.825 258.994 104.58 259.747 103.34 260.512C101.738 261.501 100.122 262.461 98.4984 263.411C97.2428 264.147 95.998 264.9 94.7582 265.665C93.1556 266.654 91.5401 267.614 89.9164 268.563C88.6608 269.3 87.416 270.053 86.1762 270.818C84.5736 271.807 82.9581 272.767 81.3343 273.716C80.0787 274.453 78.834 275.206 77.5941 275.971C75.9916 276.96 74.376 277.92 72.7523 278.869C71.4967 279.606 70.2519 280.359 69.0121 281.124C67.4095 282.113 65.794 283.073 64.1702 284.022C62.9146 284.759 61.6699 285.512 60.4301 286.277C58.8275 287.266 57.212 288.226 55.5882 289.175C54.3326 289.912 53.0879 290.665 51.848 291.43C50.4272 292.306 48.9967 293.165 47.557 294.006C45.9544 294.946 44.3618 295.903 42.7795 296.88C41.4431 297.702 40.1012 298.514 38.7561 299.32L38.446 299.506C37.9255 299.818 37.405 300.13 36.8845 300.442C35.9608 300.995 35.0373 301.549 34.114 302.104L32.5822 303.024L31.9692 303.392C12.88 314.854 12.88 314.854 12.3192 315.19C11.9079 315.437 11.4977 315.687 11.0886 315.939L10.7585 316.141C10.4541 316.327 10.1501 316.514 9.84633 316.701C8.30069 317.558 6.5659 317.633 4.87331 317.252C3.18545 316.657 1.68691 315.499 0.842197 313.826C0.38805 312.783 0.158961 311.929 0.158085 310.775L0.156343 310.099L0.15722 309.353L0.15599 308.559C0.155005 307.828 0.154658 307.097 0.154943 306.366C0.154709 305.572 0.154059 304.779 0.153008 303.985C0.151373 302.409 0.150441 300.833 0.150207 299.256C0.149623 297.369 0.148463 295.482 0.146711 293.595C0.143209 289.033 0.140866 284.471 0.139699 279.91L0.137069 273.438C0.133583 265.592 0.131132 257.746 0.129714 249.9V249.203L0.12902 245.708V245.008C0.127268 237.511 0.123473 230.015 0.117635 222.518C0.110682 213.509 0.107234 204.501 0.107298 195.492C0.106947 192.044 0.104151 188.596 0.100649 185.148C0.0971457 181.684 0.0961482 178.219 0.0976661 174.754C0.0988337 172.695 0.0975541 170.636 0.0938177 168.577C0.0914825 167.202 0.0914825 165.827 0.0938177 164.452C0.0950437 163.668 0.0952171 162.884 0.0920646 162.1C0.0896125 161.387 0.0899596 160.674 0.0931122 159.96C0.093696 159.704 0.0930562 159.448 0.091188 159.192C0.0736736 156.74 0.581587 154.874 2.21673 153.094C3.45009 151.891 4.91114 151.359 6.57342 151.322Z" fill="#FF0000"/>
<path d="M365.577 363V120.875H400.027L533.277 300.275L515.402 303.85V120.875H559.602V363H524.827L393.527 182.3L409.777 178.725V363H365.577ZM673.746 366.9C655.546 366.9 639.621 362.783 625.971 354.55C612.321 346.317 601.704 335.158 594.121 321.075C586.537 306.992 582.746 291.392 582.746 274.275C582.746 256.508 586.537 240.8 594.121 227.15C601.921 213.283 612.429 202.342 625.646 194.325C639.079 186.308 654.029 182.3 670.496 182.3C684.362 182.3 696.496 184.575 706.896 189.125C717.512 193.675 726.504 199.958 733.871 207.975C741.237 215.992 746.871 225.2 750.771 235.6C754.671 245.783 756.621 256.833 756.621 268.75C756.621 271.783 756.404 274.925 755.971 278.175C755.754 281.425 755.212 284.242 754.346 286.625H617.846V254.125H730.296L710.146 269.4C712.096 259.433 711.554 250.55 708.521 242.75C705.704 234.95 700.937 228.775 694.221 224.225C687.721 219.675 679.812 217.4 670.496 217.4C661.612 217.4 653.704 219.675 646.771 224.225C639.837 228.558 634.529 235.058 630.846 243.725C627.379 252.175 626.079 262.467 626.946 274.6C626.079 285.433 627.487 295.075 631.171 303.525C635.071 311.758 640.704 318.15 648.071 322.7C655.654 327.25 664.321 329.525 674.071 329.525C683.821 329.525 692.054 327.467 698.771 323.35C705.704 319.233 711.121 313.708 715.021 306.775L749.471 323.675C746.004 332.125 740.587 339.6 733.221 346.1C725.854 352.6 717.079 357.692 706.896 361.375C696.929 365.058 685.879 366.9 673.746 366.9ZM820.42 363L759.645 186.2H804.495L849.02 320.425L833.42 320.1L880.87 186.2H918.57L965.695 320.1L950.095 320.425L994.62 186.2H1039.47L978.695 363H940.67L892.57 222.925H906.87L858.12 363H820.42ZM1139.83 366.9C1124.45 366.9 1110.15 364.083 1096.93 358.45C1083.93 352.817 1072.67 345.017 1063.13 335.05C1053.82 324.867 1046.99 313.058 1042.66 299.625L1079.38 283.7C1085.23 297.567 1093.68 308.508 1104.73 316.525C1115.78 324.325 1128.24 328.225 1142.11 328.225C1149.91 328.225 1156.63 327.033 1162.26 324.65C1168.11 322.05 1172.55 318.583 1175.58 314.25C1178.83 309.917 1180.46 304.717 1180.46 298.65C1180.46 291.5 1178.29 285.65 1173.96 281.1C1169.84 276.333 1163.56 272.65 1155.11 270.05L1108.63 255.1C1089.78 249.25 1075.59 240.475 1066.06 228.775C1056.53 217.075 1051.76 203.317 1051.76 187.5C1051.76 173.633 1055.12 161.392 1061.83 150.775C1068.77 140.158 1078.3 131.925 1090.43 126.075C1102.78 120.008 1116.87 116.975 1132.68 116.975C1147.2 116.975 1160.53 119.575 1172.66 124.775C1184.79 129.758 1195.19 136.8 1203.86 145.9C1212.74 154.783 1219.35 165.292 1223.68 177.425L1187.28 193.675C1182.52 181.542 1175.37 172.225 1165.83 165.725C1156.3 159.008 1145.25 155.65 1132.68 155.65C1125.32 155.65 1118.82 156.95 1113.18 159.55C1107.55 161.933 1103.11 165.4 1099.86 169.95C1096.83 174.283 1095.31 179.483 1095.31 185.55C1095.31 192.267 1097.48 198.225 1101.81 203.425C1106.14 208.408 1112.75 212.308 1121.63 215.125L1166.16 229.1C1185.44 235.383 1199.85 244.05 1209.38 255.1C1219.13 266.15 1224.01 279.8 1224.01 296.05C1224.01 309.917 1220.43 322.158 1213.28 332.775C1206.13 343.392 1196.28 351.733 1183.71 357.8C1171.14 363.867 1156.52 366.9 1139.83 366.9ZM1327.83 364.95C1307.9 364.95 1292.41 359.533 1281.36 348.7C1270.53 337.65 1265.11 322.158 1265.11 302.225V224.225H1234.56V186.2H1237.81C1246.48 186.2 1253.19 183.925 1257.96 179.375C1262.73 174.825 1265.11 168.217 1265.11 159.55V145.9H1307.68V186.2H1348.31V224.225H1307.68V299.95C1307.68 305.8 1308.66 310.783 1310.61 314.9C1312.78 319.017 1316.03 322.158 1320.36 324.325C1324.91 326.492 1330.65 327.575 1337.58 327.575C1339.1 327.575 1340.83 327.467 1342.78 327.25C1344.95 327.033 1347.01 326.817 1348.96 326.6V363C1345.93 363.433 1342.46 363.867 1338.56 364.3C1334.66 364.733 1331.08 364.95 1327.83 364.95ZM1431.54 366.9C1417.89 366.9 1405.97 363.867 1395.79 357.8C1385.82 351.733 1378.13 343.283 1372.71 332.45C1367.51 321.617 1364.91 308.942 1364.91 294.425V186.2H1407.49V290.85C1407.49 298.217 1408.89 304.717 1411.71 310.35C1414.74 315.767 1418.97 320.1 1424.39 323.35C1430.02 326.383 1436.3 327.9 1443.24 327.9C1450.17 327.9 1456.34 326.383 1461.76 323.35C1467.18 320.1 1471.4 315.658 1474.44 310.025C1477.47 304.392 1478.99 297.675 1478.99 289.875V186.2H1521.56V363H1481.26V328.225L1484.84 334.4C1480.72 345.233 1473.89 353.358 1464.36 358.775C1455.04 364.192 1444.1 366.9 1431.54 366.9ZM1630.36 366.9C1613.25 366.9 1597.97 362.892 1584.54 354.875C1571.1 346.642 1560.49 335.483 1552.69 321.4C1544.89 307.317 1540.99 291.717 1540.99 274.6C1540.99 257.267 1544.89 241.667 1552.69 227.8C1560.49 213.933 1571.1 202.883 1584.54 194.65C1598.19 186.417 1613.35 182.3 1630.04 182.3C1643.47 182.3 1655.39 185.008 1665.79 190.425C1676.4 195.625 1684.75 202.992 1690.81 212.525L1684.31 221.3V116.975H1726.89V363H1686.59V328.875L1691.14 337.325C1685.07 346.858 1676.62 354.225 1665.79 359.425C1654.95 364.408 1643.15 366.9 1630.36 366.9ZM1634.91 327.9C1644.66 327.9 1653.22 325.625 1660.59 321.075C1667.95 316.525 1673.7 310.242 1677.81 302.225C1682.15 294.208 1684.31 285 1684.31 274.6C1684.31 264.417 1682.15 255.317 1677.81 247.3C1673.7 239.067 1667.95 232.675 1660.59 228.125C1653.22 223.575 1644.66 221.3 1634.91 221.3C1625.38 221.3 1616.82 223.683 1609.24 228.45C1601.65 233 1595.7 239.283 1591.36 247.3C1587.25 255.1 1585.19 264.2 1585.19 274.6C1585.19 285 1587.25 294.208 1591.36 302.225C1595.7 310.242 1601.65 316.525 1609.24 321.075C1616.82 325.625 1625.38 327.9 1634.91 327.9ZM1753.5 363V186.2H1796.07V363H1753.5ZM1753.5 166.375V120.875H1796.07V166.375H1753.5ZM1908.83 366.9C1891.5 366.9 1875.68 362.892 1861.38 354.875C1847.3 346.858 1836.03 335.917 1827.58 322.05C1819.35 308.183 1815.23 292.367 1815.23 274.6C1815.23 256.833 1819.35 241.017 1827.58 227.15C1836.03 213.283 1847.3 202.342 1861.38 194.325C1875.47 186.308 1891.28 182.3 1908.83 182.3C1926.17 182.3 1941.87 186.308 1955.96 194.325C1970.04 202.342 1981.2 213.283 1989.43 227.15C1997.88 240.8 2002.11 256.617 2002.11 274.6C2002.11 292.367 1997.88 308.183 1989.43 322.05C1980.98 335.917 1969.72 346.858 1955.63 354.875C1941.55 362.892 1925.95 366.9 1908.83 366.9ZM1908.83 327.9C1918.37 327.9 1926.71 325.625 1933.86 321.075C1941.22 316.525 1946.97 310.242 1951.08 302.225C1955.42 293.992 1957.58 284.783 1957.58 274.6C1957.58 264.2 1955.42 255.1 1951.08 247.3C1946.97 239.283 1941.22 233 1933.86 228.45C1926.71 223.683 1918.37 221.3 1908.83 221.3C1899.08 221.3 1890.52 223.683 1883.16 228.45C1875.79 233 1869.94 239.283 1865.61 247.3C1861.49 255.1 1859.43 264.2 1859.43 274.6C1859.43 284.783 1861.49 293.992 1865.61 302.225C1869.94 310.242 1875.79 316.525 1883.16 321.075C1890.52 325.625 1899.08 327.9 1908.83 327.9Z" fill="white"/>
</g>
<defs>
<filter id="filter0_i_92_51" x="0.0904541" y="46.0349" width="2002.02" height="380.759" filterUnits="userSpaceOnUse" color-interpolation-filters="sRGB">
<feFlood flood-opacity="0" result="BackgroundImageFix"/>
<feBlend mode="normal" in="SourceGraphic" in2="BackgroundImageFix" result="shape"/>
<feColorMatrix in="SourceAlpha" type="matrix" values="0 0 0 0 0 0 0 0 0 0 0 0 0 0 0 0 0 0 127 0" result="hardAlpha"/>
<feOffset dy="4"/>
<feGaussianBlur stdDeviation="2"/>
<feComposite in2="hardAlpha" operator="arithmetic" k2="-1" k3="1"/>
<feColorMatrix type="matrix" values="0 0 0 0 0 0 0 0 0 0 0 0 0 0 0 0 0 0 0.25 0"/>
<feBlend mode="normal" in2="shape" result="effect1_innerShadow_92_51"/>
</filter>
</defs>
</svg>
