<svg xmlns="http://www.w3.org/2000/svg" version="1.1" xmlns:xlink="http://www.w3.org/1999/xlink" xmlns:svgjs="http://svgjs.dev/svgjs" width="2440" height="560" preserveAspectRatio="none" viewBox="0 0 2440 560"><g mask="url(&quot;#SvgjsMask2053&quot;)" fill="none"><path d="M0 234.53L10 301.83L20 315.67L30 319.62L40 357.06L50 327.5L60 354.65L70 325.92L80 380.39L90 323.84L100 393.71L110 387.21L120 384.1L130 330.68L140 274.68L150 283.1L160 256.78L170 211.7L180 274.79L190 320.67L200 362.94L210 388.36L220 349.9L230 363.41L240 338.07L250 338.84L260 342.1L270 343.47L280 371.03L290 323.56L300 343.05L310 281.16L320 264.29L330 219.92L340 254.68L350 293.17L360 271.1L370 299.32L380 297.08L390 250.23L400 309.26L410 357.9L420 365.77L430 363.69L440 377.46L450 321.62L460 354.28L470 420.91L480 426.34L490 383.26L500 359.64L510 343.36L520 284.24L530 333.29L540 273.63L550 245.19L560 192.79L570 194.25L580 234.22L590 227.8L600 288.13L610 329.89L620 367.95L630 425.54L640 420.11L650 363.42L660 374.65L670 412.8L680 457.88L690 462.2L700 438.32L710 504.69L720 487.57L730 518.84L740 513.79L750 510.9L760 559.6L770 536.59L780 491.65L790 434.6L800 398.83L810 459.96L820 412.44L830 415.74L840 478.63L850 500.29L860 472.94L870 454.64L880 502.74L890 449.35L900 497.28L910 430.24L920 472.29L930 427.64L940 439.39L950 448.18L960 442.34L970 415.64L980 424.77L990 400.66L1000 454.33L1010 445.53L1020 384.71L1030 387.04L1040 409.79L1050 446.01L1060 460.01L1070 452.87L1080 519.1L1090 474.37L1100 433.55L1110 428.06L1120 423.35L1130 386.84L1140 431.34L1150 494.85L1160 547.57L1170 502.57L1180 535.88L1190 555.28L1200 553.51L1210 557.93L1220 488.03L1230 481.05L1240 521.43L1250 460.31L1260 518.37L1270 534.55L1280 536.83L1290 553.43L1300 493.37L1310 432.76L1320 397.14L1330 413.84L1340 348.77L1350 292.29L1360 345.92L1370 359.52L1380 392.56L1390 419.25L1400 404.28L1410 397.61L1420 350.7L1430 325.65L1440 313.27L1450 336.03L1460 279.79L1470 286.18L1480 277.34L1490 311.27L1500 357.27L1510 323.08L1520 289.8L1530 285.24L1540 294.03L1550 244.87L1560 180.56L1570 245.96L1580 312.16L1590 333.22L1600 394.95L1610 404.68L1620 334.69L1630 292.73L1640 347.52L1650 293.03L1660 238.19L1670 284.02L1680 346.76L1690 355.03L1700 406.31L1710 430.33L1720 458.16L1730 518.29L1740 547.73L1750 508.67L1760 505.02L1770 455.51L1780 477.32L1790 541.1L1800 548.18L1810 496.35L1820 547.57L1830 493.91L1840 432.51L1850 364.6L1860 409.59L1870 398.21L1880 364.43L1890 413.19L1900 369.31L1910 406.03L1920 373.84L1930 435.55L1940 461.14L1950 420.96L1960 448.91L1970 400.35L1980 447.39L1990 397.95L2000 347.83L2010 288.3L2020 258.1L2030 234.72L2040 184.86L2050 185.61L2060 212.3L2070 220.21L2080 202.52L2090 233.07L2100 171.16L2110 119.6L2120 82.5L2130 30.67L2140 87.7L2150 106.55L2160 170.42L2170 182.1L2180 157.27L2190 191.52L2200 128.06L2210 143.71L2220 175.97L2230 188.5L2240 244.57L2250 180.59L2260 239.73L2270 290.97L2280 316.63L2290 386.07L2300 433.79L2310 410.8L2320 456.89L2330 439.64L2340 375.32L2350 360.9L2360 345.56L2370 399.22L2380 343.25L2390 293.92L2400 348.65L2410 296.2L2420 282.81L2430 221.38L2440 237.44" stroke="rgba(127, 22, 12, 1)" stroke-width="2"></path><path d="M0 234.53L10 301.83L20 315.67L30 319.62L40 357.06L50 327.5L60 354.65L70 325.92L80 380.39L90 323.84L100 393.71L110 387.21L120 384.1L130 330.68L140 274.68L150 283.1L160 256.78L170 211.7L180 274.79L190 320.67L200 362.94L210 388.36L220 349.9L230 363.41L240 338.07L250 338.84L260 342.1L270 343.47L280 371.03L290 323.56L300 343.05L310 281.16L320 264.29L330 219.92L340 254.68L350 293.17L360 271.1L370 299.32L380 297.08L390 250.23L400 309.26L410 357.9L420 365.77L430 363.69L440 377.46L450 321.62L460 354.28L470 420.91L480 426.34L490 383.26L500 359.64L510 343.36L520 284.24L530 333.29L540 273.63L550 245.19L560 192.79L570 194.25L580 234.22L590 227.8L600 288.13L610 329.89L620 367.95L630 425.54L640 420.11L650 363.42L660 374.65L670 412.8L680 457.88L690 462.2L700 438.32L710 504.69L720 487.57L730 518.84L740 513.79L750 510.9L760 559.6L770 536.59L780 491.65L790 434.6L800 398.83L810 459.96L820 412.44L830 415.74L840 478.63L850 500.29L860 472.94L870 454.64L880 502.74L890 449.35L900 497.28L910 430.24L920 472.29L930 427.64L940 439.39L950 448.18L960 442.34L970 415.64L980 424.77L990 400.66L1000 454.33L1010 445.53L1020 384.71L1030 387.04L1040 409.79L1050 446.01L1060 460.01L1070 452.87L1080 519.1L1090 474.37L1100 433.55L1110 428.06L1120 423.35L1130 386.84L1140 431.34L1150 494.85L1160 547.57L1170 502.57L1180 535.88L1190 555.28L1200 553.51L1210 557.93L1220 488.03L1230 481.05L1240 521.43L1250 460.31L1260 518.37L1270 534.55L1280 536.83L1290 553.43L1300 493.37L1310 432.76L1320 397.14L1330 413.84L1340 348.77L1350 292.29L1360 345.92L1370 359.52L1380 392.56L1390 419.25L1400 404.28L1410 397.61L1420 350.7L1430 325.65L1440 313.27L1450 336.03L1460 279.79L1470 286.18L1480 277.34L1490 311.27L1500 357.27L1510 323.08L1520 289.8L1530 285.24L1540 294.03L1550 244.87L1560 180.56L1570 245.96L1580 312.16L1590 333.22L1600 394.95L1610 404.68L1620 334.69L1630 292.73L1640 347.52L1650 293.03L1660 238.19L1670 284.02L1680 346.76L1690 355.03L1700 406.31L1710 430.33L1720 458.16L1730 518.29L1740 547.73L1750 508.67L1760 505.02L1770 455.51L1780 477.32L1790 541.1L1800 548.18L1810 496.35L1820 547.57L1830 493.91L1840 432.51L1850 364.6L1860 409.59L1870 398.21L1880 364.43L1890 413.19L1900 369.31L1910 406.03L1920 373.84L1930 435.55L1940 461.14L1950 420.96L1960 448.91L1970 400.35L1980 447.39L1990 397.95L2000 347.83L2010 288.3L2020 258.1L2030 234.72L2040 184.86L2050 185.61L2060 212.3L2070 220.21L2080 202.52L2090 233.07L2100 171.16L2110 119.6L2120 82.5L2130 30.67L2140 87.7L2150 106.55L2160 170.42L2170 182.1L2180 157.27L2190 191.52L2200 128.06L2210 143.71L2220 175.97L2230 188.5L2240 244.57L2250 180.59L2260 239.73L2270 290.97L2280 316.63L2290 386.07L2300 433.79L2310 410.8L2320 456.89L2330 439.64L2340 375.32L2350 360.9L2360 345.56L2370 399.22L2380 343.25L2390 293.92L2400 348.65L2410 296.2L2420 282.81L2430 221.38L2440 237.44L2440 560L0 560z" fill="url(&quot;#SvgjsLinearGradient2054&quot;)"></path></g><defs><mask id="SvgjsMask2053"><rect width="2440" height="560" fill="#ffffff"></rect></mask><linearGradient x1="50%" y1="0%" x2="50%" y2="100%" id="SvgjsLinearGradient2054"><stop stop-opacity="0.65" stop-color="rgba(127, 22, 12, 1)" offset="0"></stop><stop stop-opacity="0" stop-color="#ea2e1c" offset="0.8"></stop></linearGradient></defs></svg>