<svg xmlns="http://www.w3.org/2000/svg" width="3000" height="3000"><path class="primary" d="m1226.113 476.619 3.51-.014c3.847-.012 7.695-.003 11.543.007q4.158-.006 8.316-.016c6.728-.013 13.456-.01 20.184-.002q8.205.01 16.412.005l2.365-.002 4.759-.003c14.848-.008 29.697.002 44.545.018q19.086.018 38.172-.003a25995 25995 0 0 1 51.492-.009q8.191.003 16.382-.009 9.99-.013 19.979.01 5.09.013 10.181.001c3.687-.008 7.374.002 11.061.017l3.215-.02c8.794.069 17.508 1.416 25.021 6.276l2.46 1.582L1518 486l2.04 1.324c3.66 2.47 6.484 5.011 8.96 8.676v2h2a679 679 0 0 1 3.375 6.438l.96 1.794c4.495 8.754 5.071 17.825 5.727 27.518q.233 3.304.473 6.61l.2 2.92c.206 2.659.206 2.659.754 4.982.579 3.102.787 6.111.96 9.262l.223 3.948.113 2.1q.18 3.291.368 6.581.53 9.356 1.042 18.711.378 6.84.77 13.679l.13 2.258c.45 7.764.93 15.504 1.913 23.222 1.067 8.381 1.501 16.792 1.957 25.223l.121 2.221q.564 10.32 1.089 20.64.29 5.7.61 11.402.116 2.142.218 4.285c.405 8.444 1.336 16.16 3.997 24.206l2.463.542c14 3.104 27.72 7.04 41.284 11.69 3.692 1.258 7.394 2.486 11.094 3.717q4.692 1.561 9.382 3.13c3.441 1.147 6.885 2.286 10.336 3.405 5.795 1.886 11.465 3.831 16.992 6.41 3.34 1.508 6.735 2.87 10.136 4.231l1.91.77A179 179 0 0 0 1671 754v2l2.414.246c4.66.98 8.656 2.822 12.961 4.817l2.675 1.222c7.423 3.416 14.74 7.023 22.019 10.736q2.933 1.483 5.88 2.94a828 828 0 0 1 23.117 11.894A511 511 0 0 0 1754 795v2l2.687.813c3.313 1.187 3.313 1.187 5.75 2.812 3.507 1.881 5.627 1.918 9.563 1.375 3.177-1.706 5.866-3.847 8.39-6.414 2.08-2.05 4.33-3.823 6.61-5.648 4.995-4.057 9.767-8.303 14.504-12.657a282 282 0 0 1 7.832-6.867c4.908-4.17 9.712-8.455 14.476-12.789 3.463-3.13 6.995-6.13 10.625-9.062a227 227 0 0 0 11.188-9.688c4.006-3.691 8.13-7.077 12.465-10.371 2.513-1.979 4.676-4.216 6.91-6.504 5-4.662 10.121-9.14 15.437-13.437 4.853-3.927 9.472-8.059 14.067-12.282a259 259 0 0 1 7.8-6.832 203 203 0 0 0 3.829-3.367l2.18-1.957 1.988-1.805C1912 681 1912 681 1914 681l1-3c13.582-10.146 29.058-11.651 45.398-9.566 13.253 2.8 23.384 11.105 32.602 20.566l2.5 2.5 2.5 2.5 2.562 2.5c2.332 2.392 4.353 4.894 6.438 7.5 2.397 2.52 4.784 4.827 7.5 7 2.71 2.168 5.077 4.517 7.5 7l2.5 2.5 2.5 2.5 2.562 2.5C2032 728 2032 728 2034 730.563c1.897 2.491 1.897 2.491 4.312 4.25 3.052 2.484 5.438 5.25 7.993 8.23 2.84 3.28 5.807 6.247 9.195 8.957 2.71 2.168 5.077 4.517 7.5 7l2.5 2.5 2.5 2.5 2.562 2.5c2.332 2.392 4.353 4.894 6.438 7.5 2.397 2.52 4.784 4.827 7.5 7 2.71 2.168 5.077 4.517 7.5 7l2.5 2.5 2.5 2.5 2.562 2.5C2102 798 2102 798 2104 800.563c1.897 2.491 1.897 2.491 4.312 4.25 3.052 2.484 5.438 5.25 7.993 8.23 2.84 3.28 5.807 6.247 9.195 8.957 2.71 2.168 5.077 4.517 7.5 7l2.5 2.5 2.5 2.5 2.562 2.5c2.332 2.392 4.353 4.894 6.438 7.5 2.397 2.52 4.784 4.827 7.5 7 2.71 2.168 5.077 4.517 7.5 7l2.5 2.5 2.5 2.5 2.562 2.5c6.438 6.603 6.438 6.603 6.438 9.5l3 1c1.535 2.477 1.535 2.477 3.062 5.625l1.536 3.102c6.22 14.52 5.217 30.485.402 45.273h-2l-.746 2.672c-1.335 3.543-2.876 5.703-5.317 8.578l-2.414 2.86a551 551 0 0 1-9.675 10.796c-1.987 2.157-1.987 2.157-3.848 5.094h-2l-.688 2.188c-1.263 2.707-2.569 4.24-4.718 6.265-6.51 6.318-12.262 13.46-18.14 20.362a420 420 0 0 1-9.267 10.498c-3.408 3.747-6.55 7.622-9.582 11.68-1.734 2.168-3.627 4.06-5.605 6.007a240 240 0 0 0-3.188 3.625 490 490 0 0 1-8.25 9.25c-3.725 4.124-7.215 8.384-10.656 12.746-2.329 2.906-4.762 5.703-7.238 8.484-2.198 2.497-4.305 5.066-6.406 7.645C2073 1060 2073 1060 2071 1060l-.875 1.813C2069 1064 2069 1064 2067 1067h-2l-.715 1.664c-2.17 3.943-5.326 7.118-8.289 10.484-2.25 3.216-2.951 4.937-2.996 8.852 2.173 6.652 6.09 12.641 9.562 18.688q1.754 3.067 3.504 6.136l1.561 2.722c3.373 6.03 3.373 6.03 3.373 9.454h2l.946 1.984 4.304 9.016 1.488 3.121c2.093 4.38 4.186 8.756 6.38 13.086 2.062 4.098 3.916 8.279 5.757 12.48 2.399 5.448 4.838 10.867 7.375 16.25 6.75 14.552 6.75 14.552 6.75 20.063h2l.953 2.93c2.91 8.872 2.91 8.872 6.297 17.57 1.608 3.877 2.387 7.323 2.75 11.5h2l.812 2.84c2.912 10.078 6.07 20.062 9.306 30.04 1.879 5.84 3.633 11.673 5.132 17.62 1.977 9.328 1.977 9.328 7.402 16.695 3.264 1.119 6.495 1.232 9.91 1.368 7.083.319 7.083.319 10.438 1.437 2.61.23 5.205.412 7.82.557l2.41.143q2.591.153 5.182.301 4.097.235 8.194.48 8.697.515 17.394 1.019 10.077.584 20.153 1.183 4.041.238 8.082.467l4.945.293 2.276.126c3.056.186 5.623.457 8.544 1.431 2.62.224 5.224.402 7.849.54l2.42.14q2.602.147 5.205.29 4.125.23 8.249.469 11.725.676 23.452 1.329 7.174.401 14.347.82 2.729.158 5.458.305c2.552.138 5.103.287 7.654.437l2.261.115c4.613.284 8.707 1.157 13.105 2.555l2.484.605c13.622 3.5 24.3 12.56 31.516 24.395 5.75 10.622 7.304 20.629 7.26 32.6.005 1.127.008 2.254.012 3.415.01 3.756.007 7.51.003 11.266l.015 8.103q.018 9.845.012 19.688a14156 14156 0 0 0 .01 22.958q.014 21.73.003 43.46c-.006 13.234.006 26.47.025 39.704q.03 20.415.024 40.83-.005 11.45.014 22.899.019 9.747.002 19.493-.01 4.966.005 9.933c.01 3.599.002 7.198-.01 10.797l.022 3.128c-.07 9.444-1.932 18.447-6.085 26.976l-1.324 2.766L2371 1661h-2l-.73 2.246c-1.443 3.129-2.965 4.604-5.583 6.817l-2.464 2.085L2358 1674l-2.375 2.188c-12.338 8.519-26.119 9.095-40.625 9.812-8.51.43-16.966.957-25.434 1.934-8.91 1.007-17.84 1.575-26.789 2.101l-2.183.129q-7.827.456-15.657.899-7.921.448-15.843.911-3.146.181-6.292.354l-3.818.223-3.366.19c-2.597.1-2.597.1-4.618 1.259-2.152.208-4.31.357-6.47.48l-2.01.12q-3.295.19-6.59.373l-4.565.264q-6.012.348-12.025.686-6.132.348-12.266.704-12.036.694-24.074 1.373v2l-1.828 1.55c-3.104 3.501-3.784 7.165-4.922 11.638q-.766 2.84-1.543 5.68l-.826 3.022c-1.516 5.35-3.23 10.634-4.944 15.923l-2.046 6.324-.979 3.02a655 655 0 0 0-2.428 7.738l-.675 2.198q-.854 2.8-1.704 5.602c-1.18 3.531-2.632 6.887-4.105 10.305a114 114 0 0 0-1.375 4.688c-1.4 4.823-3.256 9.348-5.234 13.96-1.857 4.474-3.523 9.011-5.16 13.57-1.483 4.052-3.23 7.85-5.198 11.688-1.846 3.742-3.386 7.611-4.97 11.469-2.781 6.684-5.703 13.21-9.063 19.625-4.532 8.911-8.81 17.925-13 27h-2l-.516 1.758c-1.56 5.03-3.407 8.915-6.484 13.242l-1.398 2.805c-1.587 3.166-3.367 6.12-5.227 9.133-3.616 6.155-3.616 6.155-4.375 13.062 2.151 4.175 5.076 7.648 8.125 11.188l1.47 1.723a452 452 0 0 0 9.155 10.339c3.43 3.768 6.595 7.66 9.645 11.742 1.734 2.17 3.624 4.062 5.605 6.008a264 264 0 0 1 3.75 4.125l1.86 2.07C2094 1964 2094 1964 2094 1966l3 1a89 89 0 0 1 4.062 4.875c3.196 4.008 6.457 7.857 9.938 11.625 4.896 5.323 9.466 10.868 14 16.5 2.208 2.714 4.398 5.398 6.875 7.875 3.738 3.738 7.116 7.8 10.57 11.797l6.646 7.688c3.178 3.669 6.39 7.3 9.659 10.89 5.364 5.917 10.387 12.111 15.324 18.387 1.773 2.287 1.773 2.287 3.453 3.781 8.215 8.825 10.499 21.63 10.461 33.187-.365 7.447-1.689 14.31-3.988 21.395h-2l-.563 2.438c-3.848 9.537-12.203 16.52-19.437 23.562q-2.505 2.495-5 5c-2.51 2.51-5.02 5.02-7.563 7.5-2.432 2.394-2.432 2.394-4.25 4.875-2.444 2.934-5.138 5.255-8.035 7.73-3.553 3.129-6.838 6.517-10.152 9.895-10 10-10 10-12.563 12.5-2.432 2.394-2.432 2.394-4.25 4.875-2.444 2.934-5.138 5.255-8.035 7.73-3.553 3.129-6.838 6.517-10.152 9.895-10 10-10 10-12.563 12.5-2.432 2.394-2.432 2.394-4.25 4.875-2.444 2.934-5.138 5.255-8.035 7.73-3.553 3.129-6.838 6.517-10.152 9.895-10 10-10 10-12.563 12.5-2.432 2.394-2.432 2.394-4.25 4.875-2.444 2.934-5.138 5.255-8.035 7.73-3.553 3.129-6.838 6.517-10.152 9.895-10 10-10 10-12.563 12.5-2.432 2.394-2.432 2.394-4.25 4.875-2.442 2.931-5.132 5.25-8.027 7.723-4.072 3.586-7.87 7.48-11.598 11.422-12.396 11.745-25.997 15.126-42.574 14.73-4.881-.306-8.583-1.22-12.988-3.25l-2.594-.996c-11.133-4.519-19.43-12.829-27.991-21.018-2.693-2.547-5.127-4.345-8.415-5.986a181 181 0 0 1-5-5 589 589 0 0 0-5.563-5.125l-2.816-2.57c-2.509-2.283-2.509-2.283-4.96-3.985-.549-.435-1.097-.871-1.661-1.32v-2l-1.766-.797c-2.34-1.26-4.029-2.66-5.984-4.453-2.724-2.445-5.48-4.718-8.438-6.875-3.243-2.387-5.995-4.988-8.812-7.875-3.163-2.87-6.418-5.636-9.652-8.424l-5.66-4.888-1.971-1.702a503 503 0 0 1-11.655-10.423 127 127 0 0 0-11.433-9.34c-2.082-1.563-3.818-3.356-5.629-5.223-1.894-1.69-3.812-3.35-5.73-5.012-2.433-2.13-4.82-4.308-7.208-6.488a1537 1537 0 0 0-5.062-4.5l-2.355-2.129c-4.813-4.12-4.813-4.12-10.833-5.496-4.019.659-6.312 1.566-9.812 3.625q-2.498 1.347-5 2.688c-4.268 2.332-8.481 4.746-12.688 7.187-6.946 4.007-14.074 7.59-21.271 11.12-3.397 1.672-6.78 3.372-10.166 5.068l-3.984 1.988q-3.837 1.917-7.657 3.867c-6.636 3.376-13.278 6.43-20.234 9.082q-3.938 1.626-7.871 3.266C1668 2246 1668 2246 1665 2246v2q-2.904 1.008-5.813 2l-3.269 1.125C1653 2252 1653 2252 1650 2252v2l-3 .988-4 1.325-1.965.646a243 243 0 0 0-9.91 3.498c-4.666 1.768-9.39 3.348-14.125 4.918l-2.792.927a1098 1098 0 0 1-33.208 10.386l-2.067.613C1566.328 2281 1566.328 2281 1561 2281v2l-2.313.375c-3.728 2.254-3.915 4.449-5.044 8.532-1.238 5.958-1.447 11.994-1.74 18.058q-.12 2.164-.242 4.327c-.212 3.781-.41 7.563-.605 11.346-.348 6.735-.719 13.468-1.091 20.202l-.12 2.201c-.473 8.57-1.084 17.09-2.092 25.615-.872 7.709-1.305 15.445-1.753 23.188l-.125 2.157q-.445 7.749-.875 15.499-.49 8.829-1 17.656l-.123 2.134c-.569 9.715-1.319 19.384-2.467 29.048-.398 3.554-.65 7.091-.848 10.662-1.007 13.244-5.97 24.66-15.562 34-2.574 2.145-5.237 4.106-8 6l-2.747 1.922c-13.976 8.929-29.595 7.797-45.573 7.74q-4.13.012-8.259.032c-6.67.026-13.342.025-20.013.014q-8.142-.011-16.285 0l-2.35.003-4.73.007c-14.746.02-29.493.007-44.24-.015a9576 9576 0 0 0-37.861.024 12951 12951 0 0 1-48.798.037l-2.341-.002q-8.12-.003-16.239.025-9.913.032-19.827-.008-5.047-.023-10.093.004c-14.678.075-27.211-.5-40.644-6.783v-2l-2-.562c-10.258-4.916-17.893-15.066-22-25.438-2.241-7.197-2.604-14.38-3.063-21.875q-.23-3.653-.472-7.305l-.2-3.241c-.11-2.563-.11-2.563-1.265-4.579a225 225 0 0 1-.557-7.89l-.143-2.47q-.153-2.658-.301-5.316-.235-4.205-.48-8.409c-.345-5.95-.682-11.901-1.019-17.852q-.584-10.337-1.183-20.673-.238-4.148-.467-8.294l-.293-5.076-.126-2.338c-.184-3.101-.443-5.72-1.431-8.682a181 181 0 0 1-.465-6.456l-.114-1.972q-.183-3.23-.359-6.459-.127-2.25-.257-4.503a8042 8042 0 0 1-.67-11.872q-.528-9.474-1.07-18.947-.187-3.297-.367-6.594c.126-12.155.126-12.155-3.698-23.197-5.615-3.405-12.546-4.749-18.843-6.364-18.267-4.723-36.202-11.119-53.963-17.454a550 550 0 0 0-14.007-4.744c-5.696-1.877-11.204-4.02-16.699-6.422A37.7 37.7 0 0 0 1045 2248v-2l-2.125-.516-2.875-.734-2.813-.703c-3.24-1.064-6.073-2.43-9.094-3.99-2.732-1.38-5.525-2.584-8.334-3.797-9.86-4.256-19.375-9.04-28.759-14.26l-2.98-1.637L986 2219v-2l3.2-1.766c8.468-4.684 16.904-9.42 25.3-14.234 6.882-3.94 13.77-7.87 20.687-11.75l2.305-1.305c5.276-2.945 5.276-2.945 7.508-2.945v-2l1.649-.854q3.74-1.944 7.476-3.896l2.594-1.344c4.616-2.414 8.976-4.96 13.281-7.906a188 188 0 0 1 4.812-2.625c4.972-2.672 9.834-5.498 14.688-8.375 5.48-3.244 10.98-6.412 16.594-9.418a400 400 0 0 0 7.062-3.945l2.205-1.256q2.17-1.237 4.335-2.487c5.082-2.894 5.082-2.894 7.304-2.894v-2l1.73-.812c6.263-3.027 12.129-6.491 17.997-10.223 2.991-1.796 5.998-3.35 9.127-4.883 4.749-2.395 9.342-5.09 13.962-7.723l2.332-1.312 2.1-1.193C1176 2109 1176 2109 1178 2109v-2l1.66-.777c6.126-2.958 11.92-6.315 17.725-9.845 5.447-3.303 10.999-6.372 16.615-9.378 6.258-3.39 6.258-3.39 12.187-7.312 3.354-2.013 4.96-2.16 8.813-1.688l2.895.898c5.503 1.612 11.192 2.276 16.855 3.102q3.368.498 6.734 1l3.366.5c2.737.435 5.438.948 8.154 1.496 8.969 1.663 18.107 2.263 27.183 3.067l2.973.266c14.606 1.307 29.172 2.427 43.84 2.671l2.079.046c19.66.402 39.406-.633 58.949-2.737a942 942 0 0 1 10.343-1c13.351-1.254 26.471-2.723 39.629-5.309q2.292-.4 4.586-.785l2.33-.395q2.19-.37 4.38-.73c4.065-.7 7.805-1.768 11.704-3.09q3.769-.869 7.562-1.625c1.28-.26 2.56-.52 3.88-.79 2.954-.485 5.579-.71 8.558-.585v-2l1.877-.411q4.28-.946 8.56-1.901l2.952-.647A158 158 0 0 0 1532 2064c2.444-.74 4.894-1.451 7.348-2.156 2.83-.9 5.598-1.933 8.374-2.988 2.476-.93 4.961-1.83 7.45-2.723 13.47-4.834 13.47-4.834 26.683-10.32C1584 2045 1584 2045 1587 2045v-2l2.281-.812c7.03-2.594 13.674-5.55 20.336-8.957 6.151-3.142 12.383-6.094 18.65-8.998a174 174 0 0 0 13.888-7.29C1644 2016 1644 2016 1646 2016v-2l1.862-.892c6.045-2.95 11.74-6.213 17.388-9.858l2.498-1.598q2.483-1.59 4.964-3.186 2.987-1.912 5.995-3.79c7.72-4.862 15.108-10.072 22.43-15.512l2.222-1.637 1.984-1.476C1707 1975 1707 1975 1709 1975l1-3a102 102 0 0 1 4.145-2.785c6.943-4.547 13.235-10.155 19.57-15.492C1736 1952 1736 1952 1738 1952l.75-1.875c1.51-2.567 2.61-2.843 5.25-4.125a448 448 0 0 0 5-5q2.196-2.028 4.402-4.046c7.78-7.13 15.302-14.52 22.782-21.96q1.8-1.79 3.603-3.573c6.014-5.95 11.873-11.816 16.889-18.66 1.875-2.494 4.092-4.586 6.324-6.761 2.06-2.284 4.031-4.638 6-7l2.031-2.437a535 535 0 0 0 22.531-29.25l1.303-1.82c2.238-3.142 2.238-3.142 4.135-6.493h2l.777-2.16c1.313-3.049 2.907-5.542 4.785-8.277l2.168-3.204 1.135-1.673c19.91-29.562 38.14-61.753 50.635-95.186 1.403-3.7 2.84-7.345 4.5-10.937 2.448-5.396 4.354-10.977 6.303-16.568.741-2.122 1.492-4.24 2.244-6.358l1.578-4.45.732-2.062q1.079-3.06 2.143-6.125l.759-2.162c1.906-5.546 3.381-11.136 4.741-16.838 1.18-4.952 2.396-9.83 4.059-14.645 1.372-3.995 2.243-7.886 3.003-12.042.641-3.488 1.263-6.806 2.42-10.159.994-3.08 1.576-5.976 2.053-9.174l.514-3.345.513-3.447q.513-3.417 1.036-6.833l.453-3.042C1938 1598 1938 1598 1939 1597c.363-2.446.668-4.876.937-7.332l.258-2.264q.27-2.386.534-4.774.4-3.592.81-7.183c.875-7.748 1.684-15.484 2.215-23.266C1944 1550 1944 1550 1945 1548c1.622-14.876 1.152-29.995 1.127-44.932q-.002-3.004.003-6.01c.053-18.413.053-18.413-.575-36.812-.04-.726-.078-1.453-.118-2.201-.21-3.646-.21-3.646-1.437-7.045-.27-2.206-.49-4.419-.684-6.633-.06-.665-.12-1.33-.18-2.014q-.192-2.134-.38-4.269c-.322-3.665-.66-7.33-.998-10.994l-.2-2.16c-.48-5.172-.992-10.337-1.62-15.492l-.41-3.38c-.474-3.101-.474-3.101-1.462-6.206-1.737-6.276-2.568-12.707-3.566-19.135-.817-5.107-1.757-9.834-3.5-14.717a447 447 0 0 1-1.75-8.062c-3.56-16.37-8.596-32.243-13.875-48.125l-.714-2.155c-2.655-7.986-5.44-15.88-8.661-23.658l-1.422-3.625c-6.1-15.5-13.01-30.54-20.578-45.375a3167 3167 0 0 1-4.5-8.875l-1.063-2.075c-2.437-4.824-2.437-4.824-2.437-7.05h-2a875 875 0 0 1-2-4.375l-1.125-2.46C1870 1208 1870 1208 1870 1206h-2l-.848-1.836c-2.704-5.653-5.794-10.66-9.465-15.73-1.564-2.257-2.894-4.515-4.187-6.934-2.298-4.292-5.003-8.197-7.852-12.14-4.648-6.654-4.648-6.654-4.648-9.36h-2c-4-5.412-4-5.412-4-8h-2c-1.367-1.758-1.367-1.758-2.875-4.125l-1.61-2.488L1827 1143c-2.65-4.162-2.65-4.162-5.867-7.863-2.223-2.227-4.164-4.558-6.133-7.012-4.19-5.169-8.488-10.231-12.838-15.265-2.16-2.505-4.286-5.016-6.346-7.606-1.873-2.416-1.873-2.416-4.566-4.941C1789 1098 1789 1098 1789 1096l-1.688-.687c-4.781-2.715-7.928-7.083-11.312-11.313a283 283 0 0 0-5-5l-2.5-2.562c-2.428-2.447-2.428-2.447-5-4.438-2.71-2.167-5.05-4.543-7.5-7-7.411-7.008-15.047-13.612-23-20q-2.94-2.404-5.875-4.812c-11.858-9.717-23.865-19.373-36.855-27.547l-1.952-1.233a407 407 0 0 0-3.849-2.389c-1.524-.954-3.001-1.98-4.469-3.019v-2l-1.984-.703c-3.957-1.702-7.569-3.847-11.266-6.047l-2.316-1.367c-3.75-2.228-7.426-4.498-10.997-7.008-4.4-3.018-9.141-5.293-13.926-7.625-6.173-3.025-12.165-6.335-18.132-9.749-5.003-2.835-10.104-5.219-15.379-7.501a1540 1540 0 0 1-6.313-2.937c-9.667-4.464-19.416-8.362-29.464-11.883a88 88 0 0 1-7.473-3.117c-5.184-2.398-10.61-4.08-16.032-5.847-4.139-1.35-8.222-2.762-12.28-4.341-5.327-1.984-10.778-3.198-16.312-4.444-4.414-1-8.64-2.198-12.907-3.716-3.878-1.25-7.854-2.078-11.828-2.961a398 398 0 0 1-6.657-1.54c-6.414-1.54-12.781-2.722-19.31-3.652-3.208-.527-6.293-1.231-9.444-2.023-7.016-1.648-14.003-2.47-21.168-3.164q-3.585-.358-7.167-.727c-1.038-.1-2.076-.202-3.146-.307C1424 913 1424 913 1422 912a107 107 0 0 0-5.04-.5l-3.157-.249-3.428-.251-3.56-.263c-59.954-6.975-59.954-6.975-117.815 2.263-1.572.21-3.15.37-4.73.508-10.92 1.043-21.63 2.278-32.387 4.422l-2.617.512a636 636 0 0 0-12.886 2.66c-14.32 2.95-14.32 2.95-21.401-1.64L1213 918a363 363 0 0 0-4.5-2.687l-2.46-1.508c-4.75-2.82-9.598-5.463-14.444-8.114a215 215 0 0 1-12.865-7.643c-2.15-1.302-4.357-2.232-6.731-3.048v-2l-2.438-.687c-8.229-3.032-15.66-8.108-23.182-12.57a503 503 0 0 0-13.063-7.457c-4.085-2.267-8.137-4.591-12.192-6.911l-2.74-1.565a1796 1796 0 0 1-13.623-7.86c-11.682-6.844-11.682-6.844-23.762-12.95v-2l-2.375-.625c-3.995-1.515-7.32-3.513-10.945-5.75-2.545-1.543-5.12-2.972-7.743-4.375-7.08-3.822-13.98-7.95-20.904-12.047q-4.355-2.578-8.72-5.14l-2.7-1.59q-2.661-1.499-5.402-2.844c-4.873-2.472-9.513-5.323-14.197-8.133l-2.213-1.316-1.995-1.196c-1.944-1.128-1.944-1.128-4.806-1.984v-2l-2.438-.625c-4.672-1.804-8.488-4.496-12.562-7.375 1.368-5.32 4.505-7.324 9-10 2.599-1.405 5.247-2.657 7.937-3.875l2.217-1.024c5.776-2.655 11.597-5.209 17.435-7.724 3.412-1.475 6.749-3.018 10.036-4.752 3.226-1.553 5.83-2.27 9.375-2.625v-2l2.71-.953c6.228-2.204 12.416-4.46 18.536-6.95 3.546-1.413 7.117-2.758 10.691-4.097l1.916-.719A1850 1850 0 0 1 1080 739l2.525-.94c6.832-2.518 13.721-4.8 20.662-6.997l3.33-1.059q3.27-1.038 6.541-2.073 3.693-1.17 7.383-2.349c5.667-1.796 11.301-3.532 17.059-5.008l2.886-.761a268 268 0 0 1 5.611-1.407l2.581-.683 2.294-.57c3.341-1.81 4.418-3.764 6.128-7.153.732-3.54.949-7.064 1.152-10.668l.221-3.175c.23-3.385.43-6.77.627-10.157l.415-6.784c.478-8.028.909-16.06 1.338-24.091q.278-5.15.563-10.3l.165-3.172.162-2.92.136-2.56C1162 634 1162 634 1163 631c.23-2.64.412-5.266.557-7.912l.143-2.44q.153-2.622.301-5.245.235-4.148.48-8.295.515-8.804 1.019-17.608.584-10.2 1.183-20.401c.16-2.727.313-5.454.467-8.181l.293-5.006.126-2.305c.185-3.077.45-5.667 1.431-8.607.182-1.861.32-3.727.43-5.594l.222-3.375q.22-3.483.422-6.968c.852-12.592 3.551-21.778 10.926-32.063l2.25-3.187c5.166-5.284 11.2-10.87 18.75-11.813v-2c8.172-2.389 15.616-3.435 24.113-3.381" fill="#fff"/><path class="secondary" d="m879.5 1048.688 3.406-.114c10.034.552 18.918 5.68 27.282 10.801q3.159 1.89 6.324 3.773l3.247 1.94c5.195 3.065 10.467 5.987 15.741 8.912 9.23 5.135 18.372 10.402 27.48 15.75 7.125 4.172 14.305 8.235 21.52 12.25 9.23 5.136 18.372 10.402 27.48 15.75 7.125 4.172 14.306 8.235 21.52 12.25a1412 1412 0 0 1 27.278 15.614c7.63 4.469 15.292 8.88 22.972 13.261l1.77 1.01q4.458 2.543 8.916 5.083 7.911 4.512 15.818 9.034L1119 1179l3.5 2 1.75 1 439.246 250.998q9.669 5.526 19.344 11.047 4.38 2.499 8.757 5.008c5.27 3.021 10.544 6.033 15.85 8.993q2.687 1.504 5.369 3.018a777 777 0 0 0 6.661 3.714c11.027 6.25 18.435 13.449 22.304 25.695 2.357 9.782 1.2 19.745-3.781 28.527-5.85 8.302-13.253 13.148-22 18l-5.55 3.117q-4.762 2.672-9.532 5.327A1096 1096 0 0 0 1579 1558c-9.149 5.372-18.374 10.59-27.645 15.75-7.169 4-14.276 8.093-21.355 12.25-9.15 5.372-18.374 10.59-27.645 15.75-7.169 4-14.276 8.093-21.355 12.25-9.15 5.372-18.374 10.59-27.645 15.75-7.169 4-14.276 8.093-21.355 12.25-9.15 5.372-18.374 10.59-27.645 15.75-7.169 4-14.276 8.093-21.355 12.25-9.15 5.372-18.374 10.59-27.645 15.75-7.169 4-14.276 8.093-21.355 12.25-9.15 5.372-18.374 10.59-27.645 15.75-7.169 4-14.276 8.093-21.355 12.25-9.15 5.372-18.374 10.59-27.645 15.75-7.169 4-14.276 8.093-21.355 12.25-9.15 5.372-18.374 10.59-27.645 15.75-7.169 4-14.276 8.093-21.355 12.25-9.15 5.372-18.374 10.59-27.645 15.75-7.169 4-14.276 8.093-21.355 12.25a1223 1223 0 0 1-24.5 14 1412 1412 0 0 0-27.278 15.614c-7.63 4.469-15.292 8.88-22.972 13.261l-1.77 1.01q-4.458 2.543-8.916 5.083-7.911 4.512-15.818 9.034L1028 1873l-3.5 2c-108.992 62.281-108.992 62.281-112.194 64.105a851 851 0 0 0-7.026 4.07l-1.885 1.097a1881 1881 0 0 0-5.208 3.046c-8.825 4.657-18.73 5.066-28.394 2.995-9.637-3.235-18.193-9.528-23.016-18.618-2.593-5.67-3.901-10.307-3.906-16.578l-.01-3.676.005-4.052-.007-4.312a6527 6527 0 0 1-.006-11.917q-.002-6.47-.011-12.939-.014-12.847-.016-25.693-.005-15.381-.02-30.763-.03-37.182-.04-74.363l-.015-35.167a461574 461574 0 0 1-.042-127.9v-3.786l-.004-18.988v-3.806q-.015-61.102-.065-122.205a179422 179422 0 0 1-.059-146.85c-.002-18.736-.018-37.471-.038-56.207q-.03-28.239-.017-56.478.01-16.782-.022-33.566-.02-11.208 0-22.416c.007-4.259.008-8.517-.01-12.776q-.021-5.815.006-11.631.005-2.087-.011-4.173c-.1-13.326 2.8-23.463 12.136-33.137 7.042-6.537 15.384-9.425 24.875-9.629" fill="#fff"/></svg>